<svg width="24" height="31" viewBox="0 0 24 31" fill="none" xmlns="http://www.w3.org/2000/svg">
<g clip-path="url(#clip0_7134_2378)">
<path d="M3.15615 22.5543H1.72137C1.25919 22.5543 0.885254 22.1846 0.885254 21.7297C0.885254 21.2747 1.2601 20.905 1.72137 20.905H3.15615C3.61743 20.905 3.99227 20.5344 3.99227 20.0804V16.4911C3.99227 16.0352 4.36711 15.6664 4.82839 15.6664C5.28967 15.6664 5.66451 16.0361 5.66451 16.4911V20.0804C5.66451 21.4452 4.53907 22.5552 3.15524 22.5552L3.15615 22.5543Z" fill="#0066AE"/>
<path d="M6.46162 27.4134H5.41351C4.95133 27.4134 4.57739 27.0437 4.57739 26.5887C4.57739 26.1338 4.95224 25.7641 5.41351 25.7641H6.46162C7.13579 25.7641 7.68441 25.223 7.68441 24.5581V16.4902C7.68441 16.0344 8.05925 15.6656 8.52053 15.6656C8.98181 15.6656 9.35665 16.0353 9.35665 16.4902V24.5581C9.35665 26.1329 8.05743 27.4143 6.46071 27.4143L6.46162 27.4134Z" fill="#0066AE"/>
<path d="M22.3024 22.5543H20.8677C19.4838 22.5543 18.3584 21.4444 18.3584 20.0795V16.4902C18.3584 16.0344 18.7332 15.6656 19.1945 15.6656C19.6558 15.6656 20.0306 16.0353 20.0306 16.4902V20.0795C20.0306 20.5345 20.4064 20.9042 20.8668 20.9042H22.3015C22.7637 20.9042 23.1377 21.2739 23.1377 21.7288C23.1377 22.1838 22.7628 22.5534 22.3015 22.5534L22.3024 22.5543Z" fill="#0066AE"/>
<path d="M18.6103 27.4134H17.5622C15.9655 27.4134 14.6663 26.132 14.6663 24.5572V16.4893C14.6663 16.0335 15.0411 15.6647 15.5024 15.6647C15.9637 15.6647 16.3385 16.0344 16.3385 16.4893V24.5572C16.3385 25.2221 16.8871 25.7632 17.5613 25.7632H18.6094C19.0716 25.7632 19.4455 26.1329 19.4455 26.5878C19.4455 27.0428 19.0707 27.4125 18.6094 27.4125L18.6103 27.4134Z" fill="#0066AE"/>
<path d="M11.9997 31C11.5375 31 11.1636 30.6303 11.1636 30.1754V16.4893C11.1636 16.0335 11.5384 15.6647 11.9997 15.6647C12.461 15.6647 12.8358 16.0344 12.8358 16.4893V30.1754C12.8358 30.6312 12.461 31 11.9997 31Z" fill="#0066AE"/>
<path d="M0.00190839 11.9748C0.100168 6.30463 3.8941 1.61788 9.31841 0.330219C12.3417 -0.386746 15.2113 0.0753776 17.8852 1.59635C21.0113 3.37485 22.9474 6.0453 23.7399 9.51707C23.9773 10.5589 24.0338 11.6195 23.9846 12.681C23.9628 13.1566 23.9191 13.6385 23.6953 14.089C23.3168 14.8481 22.7009 15.2627 21.882 15.4394C21.4262 15.5372 21.0013 15.4583 20.5828 15.2905C20.3563 15.1998 20.127 15.1137 19.9041 15.0132C19.0516 14.6309 18.1909 14.6175 17.3157 14.936C16.9172 15.0814 16.516 15.2259 16.0938 15.2959C15.4005 15.4107 14.7755 15.2115 14.1877 14.8705C13.7629 14.6238 13.3289 14.4039 12.8385 14.3187C11.8541 14.1464 10.9097 14.2343 10.0326 14.7458C9.65959 14.963 9.27929 15.1595 8.85531 15.2636C8.28122 15.4035 7.73169 15.2932 7.18762 15.1101C6.79095 14.9764 6.3979 14.8284 5.98394 14.7512C5.36527 14.6354 4.77571 14.7404 4.20161 14.9701C3.93686 15.076 3.67301 15.1837 3.41007 15.2932C2.53756 15.6548 1.73783 15.4834 1.00361 14.9495C0.432251 14.534 0.156577 13.9472 0.0692347 13.2589C0.00827709 12.7771 -0.00446031 12.2952 0.0028182 11.974L0.00190839 11.9748Z" fill="#0A3967"/>
<path d="M2.76682 12.9691C2.53755 12.9691 2.36923 12.8928 2.25187 12.8058C1.82425 12.4881 1.73418 11.8026 1.96801 10.6477C2.7095 6.99198 4.49911 4.98107 5.8702 3.93748C7.36957 2.79607 8.68972 2.53316 8.74521 2.52329C8.93719 2.4865 9.12279 2.61033 9.16009 2.79966C9.19739 2.989 9.07275 3.17205 8.88078 3.20884C8.86258 3.21243 7.63979 3.46369 6.27234 4.51446C5.00861 5.48537 3.35729 7.36168 2.66219 10.7859C2.41381 12.0116 2.65037 12.2288 2.67766 12.2494C2.73498 12.2916 2.90148 12.279 3.14531 12.1552C3.48012 11.9847 3.81857 11.8582 4.15156 11.7801C5.85928 11.3772 6.75909 11.8026 7.21218 12.2306C7.3532 12.3643 7.35866 12.585 7.22309 12.7241C7.08844 12.8632 6.86372 12.8686 6.7227 12.7349C6.10038 12.1471 4.94765 12.3095 4.31624 12.4585C4.03874 12.524 3.75397 12.6308 3.47011 12.7753C3.18989 12.9179 2.95697 12.9709 2.76682 12.9709V12.9691Z" fill="#E4EDFF"/>
</g>
<defs>
<clipPath id="clip0_7134_2378">
<rect width="24" height="31" fill="white"/>
</clipPath>
</defs>
</svg>
