<svg width="400" height="141" viewBox="0 0 400 141" fill="none" xmlns="http://www.w3.org/2000/svg">
<path fill-rule="evenodd" clip-rule="evenodd" d="M85.1852 129.39H253.704C254.657 129.39 255.587 129.288 256.481 129.093C257.376 129.288 258.306 129.39 259.259 129.39H355.556C362.715 129.39 368.519 123.597 368.519 116.451C368.519 109.305 362.715 103.512 355.556 103.512H344.444C337.285 103.512 331.481 97.7193 331.481 90.5733C331.481 83.4272 337.285 77.6342 344.444 77.6342H379.63C386.789 77.6342 392.593 71.8412 392.593 64.6952C392.593 57.5492 386.789 51.7561 379.63 51.7561H338.889C346.048 51.7561 351.852 45.9631 351.852 38.8171C351.852 31.6711 346.048 25.8781 338.889 25.8781H220.37C227.53 25.8781 233.333 20.0851 233.333 12.939C233.333 5.793 227.53 0 220.37 0H114.815C107.656 0 101.852 5.793 101.852 12.939C101.852 20.0851 107.656 25.8781 114.815 25.8781H40.7407C33.5815 25.8781 27.7778 31.6711 27.7778 38.8171C27.7778 45.9631 33.5815 51.7561 40.7407 51.7561H87.037C94.1963 51.7561 100 57.5492 100 64.6952C100 71.8412 94.1963 77.6342 87.037 77.6342H12.963C5.80372 77.6342 0 83.4272 0 90.5733C0 97.7193 5.80372 103.512 12.963 103.512H85.1852C78.0259 103.512 72.2222 109.305 72.2222 116.451C72.2222 123.597 78.0259 129.39 85.1852 129.39ZM387.037 129.39C394.196 129.39 400 123.597 400 116.451C400 109.305 394.196 103.512 387.037 103.512C379.878 103.512 374.074 109.305 374.074 116.451C374.074 123.597 379.878 129.39 387.037 129.39Z" fill="#F3F7FF"/>
<path d="M188.02 97.9078L186.254 98.4744L187.67 99.5279L196.461 106.07L196.468 106.076L196.476 106.082C201.566 109.801 203.389 112.305 203.082 113.833L203.079 113.851L203.076 113.869C202.874 115.367 200.788 116.952 195.896 118.521C192.658 119.56 189.68 119.682 186.835 119.157C183.865 118.61 180.489 117.26 176.743 114.814C175.443 113.966 174.592 113.344 174.114 112.923L174.072 112.885L174.025 112.849L166.166 106.714L164.536 105.441L162.427 106.118C142.477 112.518 127.291 117.33 116.864 120.558L116.851 120.562L116.838 120.566C114.478 121.323 111.379 121.427 107.201 120.699C103.161 119.995 99.3591 118.555 95.7954 116.228C93.7063 114.865 91.9063 113.264 90.4191 111.41C81.0606 99.4499 72.5816 85.1227 64.9958 68.417C63.4103 64.8895 63.149 62.3312 63.954 60.6319L63.9563 60.6271L63.9585 60.6222C64.7321 58.9165 67.5482 57.1469 73.0195 55.3918C75.7958 54.5012 78.0806 54.3116 79.9288 54.5179L79.9835 54.524L80.0381 54.529C82.1256 54.7187 83.808 55.246 85.26 56.1938C86.9726 57.3117 88.1697 58.6473 88.7787 60.2439L88.786 60.2632L88.7946 60.2825C96.9726 78.766 104.99 93.2943 112.861 103.838L114.178 105.603L116.898 104.73L148.683 94.534L150.357 93.9969L149.111 92.9748C139.566 85.1453 131.184 77.4771 123.963 69.9699C121.471 67.3339 120.598 65.1719 121.06 63.4159L121.064 63.398L121.068 63.38C121.412 61.6295 123.389 60.0775 127.453 58.7737C130.731 57.722 133.462 57.4565 135.693 57.6776C137.83 57.8894 140.05 58.6031 142.383 60.1259C143.902 61.1171 144.792 61.8311 145.212 62.3032L145.25 62.3456L145.294 62.3873C153.124 69.9178 161.653 77.6346 170.879 85.5377L172.472 86.9025L174.689 86.1915L182.119 83.8079C185.541 82.7101 188.397 82.4213 190.734 82.6441C192.967 82.8569 195.259 83.5893 197.644 85.1461C201.726 87.8107 202.81 89.7678 202.028 91.2358C201.155 92.8751 198.143 94.6606 192.354 96.5174L188.02 97.9078Z" fill="url(#paint0_linear_5645_1515)" stroke="#1F64E7" stroke-width="4"/>
<path d="M331.473 50.8839L329.707 51.4505L331.123 52.504L336.557 56.5482L336.565 56.554L336.573 56.5598C339.696 58.8419 340.612 60.2426 340.46 61.0018L340.456 61.0199L340.454 61.0381C340.353 61.7842 339.29 62.6812 336.342 63.627C334.496 64.2193 332.938 64.2507 331.539 63.993C330.015 63.7121 328.114 62.9853 325.868 61.5195C325.077 61.003 324.592 60.645 324.338 60.422L324.296 60.3846L324.249 60.3481L319.391 56.5558L317.76 55.2829L315.652 55.9593C303.32 59.9152 293.936 62.8891 287.495 64.8828L287.482 64.8868L287.469 64.8908C286.265 65.2771 284.652 65.3538 282.29 64.9424C280.067 64.5552 277.913 63.7552 275.827 62.3936C274.616 61.6027 273.555 60.664 272.67 59.5613C266.912 52.2012 261.685 43.3727 257.004 33.0641C256.037 30.912 255.909 29.4125 256.362 28.4554L256.364 28.4506L256.367 28.4458C256.782 27.5293 258.342 26.4999 261.66 25.4357C263.28 24.9159 264.467 24.8536 265.276 24.9439L265.33 24.95L265.385 24.955C266.38 25.0454 267.147 25.2819 267.86 25.7474C268.788 26.3528 269.462 27.0916 269.811 28.0072L269.819 28.0265L269.827 28.0458C274.887 39.4814 279.856 48.4906 284.748 55.0435L286.065 56.8087L288.785 55.9364L308.434 49.6331L310.108 49.0959L308.862 48.0739C302.981 43.2502 297.82 38.5279 293.375 33.9069C291.895 32.3405 291.424 31.1061 291.679 30.1358L291.684 30.118L291.687 30.0999C291.871 29.1653 292.927 28.2909 295.31 27.5264C297.249 26.9044 298.72 26.7954 299.774 26.8998C300.733 26.9949 301.856 27.3185 303.173 28.1782C304.091 28.7774 304.572 29.1731 304.774 29.4004L304.812 29.4429L304.856 29.4845C309.706 34.1492 314.988 38.9284 320.701 43.822L322.294 45.1868L324.511 44.4758L329.104 43.0023C331.134 42.3511 332.686 42.2277 333.807 42.3346C334.825 42.4315 335.989 42.7669 337.335 43.6454C339.754 45.2247 340.209 46.2595 339.831 46.9685C339.363 47.8487 337.682 48.8922 334.153 50.0244L331.473 50.8839Z" fill="url(#paint1_linear_5645_1515)" stroke="#1F64E7" stroke-width="4"/>
<path d="M236.66 44.9526C247.913 50.5505 256.816 57.9686 262.147 65.3448C267.54 72.8069 268.971 79.7327 266.464 84.753C263.957 89.7734 257.556 92.803 248.34 92.9977C239.23 93.1902 227.936 90.5609 216.683 84.963C205.43 79.3652 196.527 71.947 191.196 64.5709C185.803 57.1087 184.372 50.183 186.879 45.1626C189.386 40.1423 195.787 37.1126 205.003 36.9179C214.113 36.7254 225.407 39.3547 236.66 44.9526Z" fill="url(#paint2_linear_5645_1515)" stroke="#1F64E7" stroke-width="4"/>
<path d="M182.144 21.242L204.868 77.9485L208.839 80.8308L214.975 84.4338L220.389 86.5955L194.534 19.7794C194.236 19.0084 193.494 18.5 192.667 18.5L183.999 18.5C182.584 18.5 181.617 19.9286 182.144 21.242Z" fill="url(#paint3_linear_5645_1515)" stroke="#1F64E7" stroke-width="4"/>
<path d="M207.827 8.13416L241.832 92.9037C241.965 93.2357 242.265 93.4715 242.62 93.522L244.503 93.7907C244.55 93.7973 244.597 93.8007 244.645 93.8007L249.627 93.8007L252.438 93.4499C252.489 93.4436 252.54 93.4333 252.589 93.4193L255.042 92.7198L256.651 92.0311C257.158 91.8143 257.394 91.2284 257.178 90.7212L221.45 6.80252C221.286 6.41707 220.899 6.17449 220.481 6.19473L208.706 6.76424C208.02 6.79744 207.571 7.49652 207.827 8.13416Z" fill="url(#paint4_linear_5645_1515)" stroke="#1F64E7" stroke-width="4"/>
<path d="M200.635 30.3605L219.604 24.2856C220.394 24.0328 221.239 24.4676 221.493 25.2567C221.746 26.0458 221.312 26.8904 220.523 27.1432L201.554 33.218L200.635 30.3605Z" fill="#C4CBF5" stroke="#1F64E7" stroke-width="4"/>
<path d="M208.785 51.147L227.419 44.1177C228.195 43.8252 229.062 44.2164 229.355 44.9917C229.649 45.767 229.258 46.6326 228.482 46.9252L209.848 53.9545L208.785 51.147Z" fill="#C4CBF5" stroke="#1F64E7" stroke-width="4"/>
<path d="M217.204 71.0604L233.58 64.3092C234.347 63.9933 235.225 64.3581 235.542 65.1242C235.859 65.8902 235.495 66.7674 234.728 67.0834L218.352 73.8345L217.204 71.0604Z" fill="#C4CBF5" stroke="#1F64E7" stroke-width="4"/>
<defs>
<linearGradient id="paint0_linear_5645_1515" x1="164.815" y1="73.9378" x2="129.685" y2="132.701" gradientUnits="userSpaceOnUse">
<stop offset="0.451825" stop-color="#E8F0FE"/>
<stop offset="1" stop-color="white"/>
</linearGradient>
<linearGradient id="paint1_linear_5645_1515" x1="274.19" y1="62.3387" x2="315.733" y2="28.0793" gradientUnits="userSpaceOnUse">
<stop offset="0.694832" stop-color="#E8F0FE"/>
<stop offset="1" stop-color="white"/>
</linearGradient>
<linearGradient id="paint2_linear_5645_1515" x1="185.088" y1="44.2718" x2="268.194" y2="85.7664" gradientUnits="userSpaceOnUse">
<stop stop-color="#E8F0FE"/>
<stop offset="1" stop-color="#F1F3FF"/>
</linearGradient>
<linearGradient id="paint3_linear_5645_1515" x1="191.861" y1="15.8961" x2="208.275" y2="92.4341" gradientUnits="userSpaceOnUse">
<stop stop-color="#F1F3FF"/>
<stop offset="0.535723" stop-color="#E8F0FE"/>
</linearGradient>
<linearGradient id="paint4_linear_5645_1515" x1="218.984" y1="3.41568" x2="245.279" y2="101.687" gradientUnits="userSpaceOnUse">
<stop stop-color="#F1F3FF"/>
<stop offset="0.51898" stop-color="#E8F0FE"/>
</linearGradient>
</defs>
</svg>
