<svg width="157" height="104" viewBox="0 0 157 104" fill="none" xmlns="http://www.w3.org/2000/svg">
<rect width="157" height="104" rx="5" fill="#E2E6EC"/>
<path fill-rule="evenodd" clip-rule="evenodd" d="M56 38.2957C56 35.9233 58.0914 34 60.6712 34H97.3222C99.902 34 101.993 35.9233 101.993 38.2957V64.7309C101.993 67.1034 99.902 69.0266 97.3222 69.0266H60.6712C58.0914 69.0266 56 67.1034 56 64.7309V38.2957ZM60.6712 35.9826C59.2821 35.9826 58.1559 37.0182 58.1559 38.2957V64.7309C58.1559 66.0084 59.2821 67.044 60.6712 67.044H97.3222C98.7113 67.044 99.8375 66.0084 99.8375 64.7309V38.2957C99.8375 37.0182 98.7113 35.9826 97.3222 35.9826H60.6712Z" fill="#B2B9C4"/>
<ellipse cx="66.7798" cy="43.2523" rx="4.67121" ry="4.29572" fill="#B2B9C4"/>
<path d="M62.1086 61.412V59.5146C62.1086 59.0483 62.3039 58.6034 62.6471 58.2878L68.5786 52.8331C69.1942 52.267 70.1341 52.2448 70.7758 52.7812L72.5014 54.2239C73.1363 54.7546 74.0644 54.7392 74.6813 54.1877L85.416 44.5901C86.0553 44.0185 87.0239 44.0253 87.655 44.6057L96.0652 52.3399C96.4084 52.6555 96.6037 53.1004 96.6037 53.5667V61.412C96.6037 62.3325 95.8575 63.0787 94.937 63.0787H63.7753C62.8548 63.0787 62.1086 62.3325 62.1086 61.412Z" fill="#B2B9C4"/>
</svg>
