<svg width="175" height="140" viewBox="0 0 175 140" fill="none" xmlns="http://www.w3.org/2000/svg">
<path fill-rule="evenodd" clip-rule="evenodd" d="M44.1 93.7998H107.8C108.16 93.7998 108.512 93.7609 108.85 93.687C109.188 93.7609 109.54 93.7998 109.9 93.7998H146.3C149.006 93.7998 151.2 91.606 151.2 88.8998C151.2 86.1936 149.006 83.9998 146.3 83.9998H142.1C139.394 83.9998 137.2 81.806 137.2 79.0998C137.2 76.3936 139.394 74.1998 142.1 74.1998H155.4C158.106 74.1998 160.3 72.006 160.3 69.2998C160.3 66.5936 158.106 64.3998 155.4 64.3998H140C142.706 64.3998 144.9 62.206 144.9 59.4998C144.9 56.7936 142.706 54.5998 140 54.5998H95.2C97.9062 54.5998 100.1 52.406 100.1 49.6998C100.1 46.9936 97.9062 44.7998 95.2 44.7998H55.3C52.5938 44.7998 50.4 46.9936 50.4 49.6998C50.4 52.406 52.5938 54.5998 55.3 54.5998H27.3C24.5938 54.5998 22.4 56.7936 22.4 59.4998C22.4 62.206 24.5938 64.3998 27.3 64.3998H44.8C47.5062 64.3998 49.7 66.5936 49.7 69.2998C49.7 72.006 47.5062 74.1998 44.8 74.1998H16.8C14.0938 74.1998 11.9 76.3936 11.9 79.0998C11.9 81.806 14.0938 83.9998 16.8 83.9998H44.1C41.3938 83.9998 39.2 86.1936 39.2 88.8998C39.2 91.606 41.3938 93.7998 44.1 93.7998ZM158.2 93.7998C160.906 93.7998 163.1 91.606 163.1 88.8998C163.1 86.1936 160.906 83.9998 158.2 83.9998C155.494 83.9998 153.3 86.1936 153.3 88.8998C153.3 91.606 155.494 93.7998 158.2 93.7998Z" fill="#F3F7FF"/>
<path fill-rule="evenodd" clip-rule="evenodd" d="M48.9667 49.3622L107.084 40.058C108.229 39.8746 109.306 40.6544 109.49 41.7996C109.49 41.8019 109.49 41.8042 109.491 41.8065L115.176 78.0889C115.355 79.2321 114.576 80.3047 113.433 80.4876L55.3159 89.7918C54.1707 89.9752 53.0937 89.1954 52.9103 88.0502C52.9099 88.0479 52.9096 88.0456 52.9092 88.0433L47.224 51.7609C47.0449 50.6177 47.8242 49.5451 48.9667 49.3622Z" fill="white"/>
<path d="M58.3414 89.1968L56.113 89.5641C54.5823 89.8163 53.145 88.7296 52.9025 87.1368L47.6349 52.5278C47.3925 50.9349 48.4368 49.4392 49.9675 49.1869L106.091 39.9368C107.621 39.6845 109.059 40.7713 109.301 42.3641C109.537 43.916 109.726 45.1529 109.866 46.0746M110.266 48.7034C110.393 49.5383 110.504 50.2694 110.6 50.8968" stroke="#1F64E7" stroke-width="2.5" stroke-linecap="round"/>
<path fill-rule="evenodd" clip-rule="evenodd" d="M51.7839 50.9547L104.816 42.6729C105.958 42.4945 107.03 43.2731 107.213 44.4147L112.365 76.488C112.549 77.6331 111.77 78.7106 110.625 78.8945C110.622 78.895 110.619 78.8955 110.616 78.8959L57.584 87.1777C56.4416 87.3561 55.37 86.5775 55.1866 85.4359L50.0345 53.3626C49.8505 52.2175 50.6297 51.14 51.7748 50.9561C51.7778 50.9556 51.7808 50.9551 51.7839 50.9547Z" fill="#E8F0FE"/>
<path d="M119.525 54.0752H64.575C63.0286 54.0752 61.775 55.3288 61.775 56.8752V90.8252C61.775 92.3716 63.0286 93.6252 64.575 93.6252H119.525C121.071 93.6252 122.325 92.3716 122.325 90.8252V56.8752C122.325 55.3288 121.071 54.0752 119.525 54.0752Z" fill="white" stroke="#1F64E7" stroke-width="2.5"/>
<path d="M121.45 62.2998H62.65V72.0998H121.45V62.2998Z" fill="#E8F0FE"/>
<path d="M72.3024 62.2998H67.2649M121.92 62.2998H75.8316H121.92ZM117.72 71.3998H62.5321H117.72ZM87.5438 84.6998H67.7283H87.5438Z" stroke="#1F64E7" stroke-width="2.5" stroke-linecap="round" stroke-linejoin="round"/>
<path d="M105.7 31.4998C106.86 31.4998 107.8 30.5596 107.8 29.3998C107.8 28.24 106.86 27.2998 105.7 27.2998C104.54 27.2998 103.6 28.24 103.6 29.3998C103.6 30.5596 104.54 31.4998 105.7 31.4998Z" stroke="#75A4FE" stroke-width="2"/>
<path d="M131.6 44.7996C132.76 44.7996 133.7 43.8594 133.7 42.6996C133.7 41.5398 132.76 40.5996 131.6 40.5996C130.44 40.5996 129.5 41.5398 129.5 42.6996C129.5 43.8594 130.44 44.7996 131.6 44.7996Z" fill="#75A4FE"/>
<path d="M116.443 40.946C116.443 40.296 116.955 39.7674 117.586 39.7674H118.157C118.788 39.7674 119.3 40.296 119.3 40.946V41.0123C119.3 41.4138 119.102 41.7876 118.775 42.003L118.021 42.5021C117.571 42.8004 117.3 43.3142 117.3 43.8648V43.8924C117.3 44.2184 117.555 44.4817 117.871 44.4817C118.188 44.4817 118.443 44.2184 118.443 43.8924V43.8667C118.443 43.7157 118.518 43.5757 118.639 43.4947L119.393 42.9956C120.046 42.561 120.443 41.8152 120.443 41.0123V40.946C120.443 39.6441 119.42 38.5889 118.157 38.5889H117.586C116.323 38.5889 115.3 39.6441 115.3 40.946C115.3 41.272 115.555 41.5353 115.871 41.5353C116.188 41.5353 116.443 41.272 116.443 40.946ZM117.871 46.8389C118.061 46.8389 118.243 46.7613 118.377 46.6231C118.511 46.485 118.586 46.2976 118.586 46.1023C118.586 45.9069 118.511 45.7195 118.377 45.5814C118.243 45.4433 118.061 45.3657 117.871 45.3657C117.682 45.3657 117.5 45.4433 117.366 45.5814C117.232 45.7195 117.157 45.9069 117.157 46.1023C117.157 46.2976 117.232 46.485 117.366 46.6231C117.5 46.7613 117.682 46.8389 117.871 46.8389Z" fill="#75A4FE"/>
<path d="M40.9619 44.964C40.9619 44.5306 41.3035 44.1783 41.7238 44.1783H42.1047C42.525 44.1783 42.8666 44.5306 42.8666 44.964V45.0082C42.8666 45.2758 42.7345 45.5251 42.5166 45.6687L42.0142 46.0014C41.7142 46.2003 41.5333 46.5428 41.5333 46.9099V46.9283C41.5333 47.1456 41.7035 47.3211 41.9142 47.3211C42.125 47.3211 42.2952 47.1456 42.2952 46.9283V46.9111C42.2952 46.8104 42.3452 46.7171 42.4261 46.6631L42.9285 46.3304C43.3642 46.0407 43.6285 45.5435 43.6285 45.0082V44.964C43.6285 44.096 42.9464 43.3926 42.1047 43.3926H41.7238C40.8821 43.3926 40.2 44.096 40.2 44.964C40.2 45.1813 40.3702 45.3569 40.5809 45.3569C40.7916 45.3569 40.9619 45.1813 40.9619 44.964ZM41.9142 48.8926C42.0405 48.8926 42.1617 48.8408 42.251 48.7487C42.3403 48.6567 42.3904 48.5317 42.3904 48.4015C42.3904 48.2713 42.3403 48.1464 42.251 48.0543C42.1617 47.9622 42.0405 47.9104 41.9142 47.9104C41.7879 47.9104 41.6668 47.9622 41.5775 48.0543C41.4882 48.1464 41.438 48.2713 41.438 48.4015C41.438 48.5317 41.4882 48.6567 41.5775 48.7487C41.6668 48.8408 41.7879 48.8926 41.9142 48.8926Z" fill="#75A4FE"/>
<path d="M49 40.6004C50.1598 40.6004 51.1 39.6602 51.1 38.5004C51.1 37.3406 50.1598 36.4004 49 36.4004C47.8402 36.4004 46.9 37.3406 46.9 38.5004C46.9 39.6602 47.8402 40.6004 49 40.6004Z" fill="#75A4FE"/>
<path d="M29.6797 111.469C29.6797 111.568 29.6745 111.654 29.6641 111.727C29.6536 111.799 29.6354 111.859 29.6094 111.906C29.5885 111.948 29.5599 111.979 29.5234 112C29.4922 112.021 29.4557 112.031 29.4141 112.031H26.5703V120.797C26.5703 120.839 26.5599 120.875 26.5391 120.906C26.5182 120.938 26.4818 120.964 26.4297 120.984C26.3776 121 26.3073 121.013 26.2188 121.023C26.1354 121.039 26.0286 121.047 25.8984 121.047C25.7734 121.047 25.6667 121.039 25.5781 121.023C25.4896 121.013 25.4193 121 25.3672 120.984C25.3151 120.964 25.2786 120.938 25.2578 120.906C25.237 120.875 25.2266 120.839 25.2266 120.797V112.031H22.3828C22.3411 112.031 22.3021 112.021 22.2656 112C22.2344 111.979 22.2083 111.948 22.1875 111.906C22.1667 111.859 22.1484 111.799 22.1328 111.727C22.1224 111.654 22.1172 111.568 22.1172 111.469C22.1172 111.37 22.1224 111.284 22.1328 111.211C22.1484 111.133 22.1667 111.07 22.1875 111.023C22.2083 110.977 22.2344 110.943 22.2656 110.922C22.3021 110.901 22.3411 110.891 22.3828 110.891H29.4141C29.4557 110.891 29.4922 110.901 29.5234 110.922C29.5599 110.943 29.5885 110.977 29.6094 111.023C29.6354 111.07 29.6536 111.133 29.6641 111.211C29.6745 111.284 29.6797 111.37 29.6797 111.469ZM32.4313 120.805C32.4313 120.846 32.4208 120.883 32.4 120.914C32.3792 120.94 32.3453 120.964 32.2984 120.984C32.2516 121.005 32.1865 121.021 32.1031 121.031C32.0198 121.042 31.913 121.047 31.7828 121.047C31.6578 121.047 31.5536 121.042 31.4703 121.031C31.387 121.021 31.3193 121.005 31.2672 120.984C31.2203 120.964 31.1865 120.94 31.1656 120.914C31.15 120.883 31.1422 120.846 31.1422 120.805V113.773C31.1422 113.737 31.15 113.703 31.1656 113.672C31.1865 113.641 31.2203 113.615 31.2672 113.594C31.3193 113.573 31.387 113.557 31.4703 113.547C31.5536 113.536 31.6578 113.531 31.7828 113.531C31.913 113.531 32.0198 113.536 32.1031 113.547C32.1865 113.557 32.2516 113.573 32.2984 113.594C32.3453 113.615 32.3792 113.641 32.4 113.672C32.4208 113.703 32.4313 113.737 32.4313 113.773V120.805ZM32.5797 111.398C32.5797 111.701 32.5224 111.906 32.4078 112.016C32.2932 112.125 32.0823 112.18 31.775 112.18C31.4729 112.18 31.2646 112.128 31.15 112.023C31.0406 111.914 30.9859 111.711 30.9859 111.414C30.9859 111.112 31.0432 110.906 31.1578 110.797C31.2724 110.688 31.4833 110.633 31.7906 110.633C32.0927 110.633 32.2984 110.688 32.4078 110.797C32.5224 110.901 32.5797 111.102 32.5797 111.398ZM40.9875 120.805C40.9875 120.846 40.9771 120.883 40.9563 120.914C40.9406 120.945 40.9094 120.971 40.8625 120.992C40.8208 121.008 40.7635 121.021 40.6906 121.031C40.6177 121.042 40.5292 121.047 40.425 121.047C40.3156 121.047 40.2245 121.042 40.1516 121.031C40.0786 121.021 40.0188 121.008 39.9719 120.992C39.925 120.971 39.8911 120.945 39.8703 120.914C39.8495 120.883 39.8391 120.846 39.8391 120.805V119.875C39.4693 120.276 39.0839 120.589 38.6828 120.812C38.287 121.036 37.8521 121.148 37.3781 121.148C36.8625 121.148 36.4224 121.049 36.0578 120.852C35.6932 120.648 35.3964 120.378 35.1672 120.039C34.9432 119.695 34.7792 119.294 34.675 118.836C34.5708 118.372 34.5188 117.885 34.5188 117.375C34.5188 116.771 34.5839 116.227 34.7141 115.742C34.8443 115.253 35.037 114.836 35.2922 114.492C35.5474 114.148 35.8625 113.885 36.2375 113.703C36.6177 113.516 37.0552 113.422 37.55 113.422C37.9615 113.422 38.3365 113.513 38.675 113.695C39.0188 113.872 39.3573 114.135 39.6906 114.484V110.398C39.6906 110.362 39.6984 110.328 39.7141 110.297C39.7349 110.26 39.7714 110.234 39.8234 110.219C39.8755 110.198 39.9406 110.182 40.0188 110.172C40.1021 110.156 40.2063 110.148 40.3313 110.148C40.4615 110.148 40.5682 110.156 40.6516 110.172C40.7349 110.182 40.8 110.198 40.8469 110.219C40.8938 110.234 40.9276 110.26 40.9484 110.297C40.9745 110.328 40.9875 110.362 40.9875 110.398V120.805ZM39.6906 115.859C39.3417 115.427 39.0031 115.099 38.675 114.875C38.3521 114.646 38.0135 114.531 37.6594 114.531C37.3313 114.531 37.0526 114.609 36.8234 114.766C36.5943 114.922 36.4068 115.128 36.2609 115.383C36.1203 115.638 36.0161 115.927 35.9484 116.25C35.8859 116.573 35.8547 116.901 35.8547 117.234C35.8547 117.589 35.8807 117.935 35.9328 118.273C35.9901 118.612 36.0865 118.914 36.2219 119.18C36.3573 119.44 36.537 119.651 36.7609 119.812C36.9849 119.969 37.2661 120.047 37.6047 120.047C37.7766 120.047 37.9406 120.023 38.0969 119.977C38.2583 119.93 38.4224 119.852 38.5891 119.742C38.7557 119.633 38.9302 119.492 39.1125 119.32C39.2948 119.143 39.4875 118.927 39.6906 118.672V115.859ZM48.8172 120.812C48.8172 120.875 48.7964 120.922 48.7547 120.953C48.713 120.984 48.6557 121.008 48.5828 121.023C48.5099 121.039 48.4031 121.047 48.2625 121.047C48.1271 121.047 48.0177 121.039 47.9344 121.023C47.8563 121.008 47.799 120.984 47.7625 120.953C47.726 120.922 47.7078 120.875 47.7078 120.812V120.109C47.4005 120.438 47.0568 120.693 46.6766 120.875C46.3016 121.057 45.9031 121.148 45.4813 121.148C45.1115 121.148 44.7755 121.099 44.4734 121C44.1766 120.906 43.9214 120.768 43.7078 120.586C43.4995 120.404 43.3354 120.18 43.2156 119.914C43.101 119.648 43.0438 119.346 43.0438 119.008C43.0438 118.612 43.1245 118.268 43.2859 117.977C43.4474 117.685 43.6792 117.443 43.9813 117.25C44.2833 117.057 44.6531 116.914 45.0906 116.82C45.5281 116.721 46.0203 116.672 46.5672 116.672H47.5359V116.125C47.5359 115.854 47.5073 115.615 47.45 115.406C47.3927 115.198 47.299 115.026 47.1688 114.891C47.0438 114.75 46.8797 114.646 46.6766 114.578C46.4734 114.505 46.2234 114.469 45.9266 114.469C45.6089 114.469 45.3224 114.508 45.0672 114.586C44.8172 114.659 44.5958 114.742 44.4031 114.836C44.2156 114.924 44.0568 115.008 43.9266 115.086C43.8016 115.159 43.7078 115.195 43.6453 115.195C43.6036 115.195 43.5672 115.185 43.5359 115.164C43.5047 115.143 43.476 115.112 43.45 115.07C43.4292 115.029 43.4135 114.977 43.4031 114.914C43.3927 114.846 43.3875 114.773 43.3875 114.695C43.3875 114.565 43.3953 114.464 43.4109 114.391C43.4318 114.312 43.476 114.24 43.5438 114.172C43.6167 114.104 43.7391 114.026 43.9109 113.938C44.0828 113.844 44.2807 113.76 44.5047 113.688C44.7286 113.609 44.9734 113.547 45.2391 113.5C45.5047 113.448 45.7729 113.422 46.0438 113.422C46.549 113.422 46.9786 113.479 47.3328 113.594C47.687 113.708 47.9734 113.878 48.1922 114.102C48.4109 114.32 48.5698 114.594 48.6688 114.922C48.7677 115.25 48.8172 115.633 48.8172 116.07V120.812ZM47.5359 117.602H46.4344C46.0802 117.602 45.7729 117.633 45.5125 117.695C45.2521 117.753 45.0359 117.841 44.8641 117.961C44.6922 118.076 44.5646 118.216 44.4813 118.383C44.4031 118.544 44.3641 118.732 44.3641 118.945C44.3641 119.31 44.4786 119.602 44.7078 119.82C44.9422 120.034 45.2677 120.141 45.6844 120.141C46.0229 120.141 46.3354 120.055 46.6219 119.883C46.9135 119.711 47.2182 119.448 47.5359 119.094V117.602ZM57.1156 120.797C57.1156 120.839 57.1052 120.875 57.0844 120.906C57.0635 120.938 57.0271 120.964 56.975 120.984C56.9281 121.005 56.8604 121.021 56.7719 121.031C56.6833 121.042 56.5714 121.047 56.4359 121.047C56.2953 121.047 56.1781 121.042 56.0844 121.031C55.9958 121.026 55.9203 121.016 55.8578 121C55.7953 120.979 55.7432 120.953 55.7016 120.922C55.6651 120.885 55.6313 120.844 55.6 120.797L52.6313 116.906V120.805C52.6313 120.846 52.6208 120.883 52.6 120.914C52.5792 120.94 52.5453 120.964 52.4984 120.984C52.4516 121.005 52.3865 121.021 52.3031 121.031C52.2198 121.042 52.113 121.047 51.9828 121.047C51.8578 121.047 51.7536 121.042 51.6703 121.031C51.587 121.021 51.5193 121.005 51.4672 120.984C51.4203 120.964 51.3865 120.94 51.3656 120.914C51.35 120.883 51.3422 120.846 51.3422 120.805V110.367C51.3422 110.326 51.35 110.289 51.3656 110.258C51.3865 110.227 51.4203 110.201 51.4672 110.18C51.5193 110.159 51.587 110.143 51.6703 110.133C51.7536 110.122 51.8578 110.117 51.9828 110.117C52.113 110.117 52.2198 110.122 52.3031 110.133C52.3865 110.143 52.4516 110.159 52.4984 110.18C52.5453 110.201 52.5792 110.227 52.6 110.258C52.6208 110.289 52.6313 110.326 52.6313 110.367V116.727L55.2875 113.805C55.3292 113.753 55.3734 113.711 55.4203 113.68C55.4672 113.643 55.5219 113.615 55.5844 113.594C55.6521 113.568 55.7302 113.552 55.8188 113.547C55.9073 113.536 56.0141 113.531 56.1391 113.531C56.2693 113.531 56.3786 113.536 56.4672 113.547C56.5557 113.552 56.626 113.565 56.6781 113.586C56.7354 113.602 56.7745 113.625 56.7953 113.656C56.8214 113.682 56.8344 113.719 56.8344 113.766C56.8344 113.828 56.8161 113.891 56.7797 113.953C56.7484 114.016 56.6938 114.089 56.6156 114.172L54.0688 116.719L56.9281 120.43C56.9958 120.518 57.0427 120.591 57.0688 120.648C57.1 120.701 57.1156 120.75 57.1156 120.797ZM67.8453 120.812C67.8453 120.875 67.8245 120.922 67.7828 120.953C67.7411 120.984 67.6839 121.008 67.6109 121.023C67.538 121.039 67.4313 121.047 67.2906 121.047C67.1552 121.047 67.0458 121.039 66.9625 121.023C66.8844 121.008 66.8271 120.984 66.7906 120.953C66.7542 120.922 66.7359 120.875 66.7359 120.812V120.109C66.4286 120.438 66.0849 120.693 65.7047 120.875C65.3297 121.057 64.9313 121.148 64.5094 121.148C64.1396 121.148 63.8036 121.099 63.5016 121C63.2047 120.906 62.9495 120.768 62.7359 120.586C62.5276 120.404 62.3635 120.18 62.2438 119.914C62.1292 119.648 62.0719 119.346 62.0719 119.008C62.0719 118.612 62.1526 118.268 62.3141 117.977C62.4755 117.685 62.7073 117.443 63.0094 117.25C63.3115 117.057 63.6813 116.914 64.1188 116.82C64.5563 116.721 65.0484 116.672 65.5953 116.672H66.5641V116.125C66.5641 115.854 66.5354 115.615 66.4781 115.406C66.4208 115.198 66.3271 115.026 66.1969 114.891C66.0719 114.75 65.9078 114.646 65.7047 114.578C65.5016 114.505 65.2516 114.469 64.9547 114.469C64.637 114.469 64.3505 114.508 64.0953 114.586C63.8453 114.659 63.624 114.742 63.4313 114.836C63.2438 114.924 63.0849 115.008 62.9547 115.086C62.8297 115.159 62.7359 115.195 62.6734 115.195C62.6318 115.195 62.5953 115.185 62.5641 115.164C62.5328 115.143 62.5042 115.112 62.4781 115.07C62.4573 115.029 62.4417 114.977 62.4313 114.914C62.4208 114.846 62.4156 114.773 62.4156 114.695C62.4156 114.565 62.4234 114.464 62.4391 114.391C62.4599 114.312 62.5042 114.24 62.5719 114.172C62.6448 114.104 62.7672 114.026 62.9391 113.938C63.1109 113.844 63.3089 113.76 63.5328 113.688C63.7568 113.609 64.0016 113.547 64.2672 113.5C64.5328 113.448 64.801 113.422 65.0719 113.422C65.5771 113.422 66.0068 113.479 66.3609 113.594C66.7151 113.708 67.0016 113.878 67.2203 114.102C67.4391 114.32 67.5979 114.594 67.6969 114.922C67.7958 115.25 67.8453 115.633 67.8453 116.07V120.812ZM66.5641 117.602H65.4625C65.1083 117.602 64.801 117.633 64.5406 117.695C64.2802 117.753 64.0641 117.841 63.8922 117.961C63.7203 118.076 63.5927 118.216 63.5094 118.383C63.4313 118.544 63.3922 118.732 63.3922 118.945C63.3922 119.31 63.5068 119.602 63.7359 119.82C63.9703 120.034 64.2958 120.141 64.7125 120.141C65.051 120.141 65.3635 120.055 65.65 119.883C65.9417 119.711 66.2464 119.448 66.5641 119.094V117.602ZM76.3937 120.805C76.3937 120.846 76.3833 120.883 76.3625 120.914C76.3469 120.945 76.3156 120.971 76.2687 120.992C76.2271 121.008 76.1698 121.021 76.0969 121.031C76.024 121.042 75.9354 121.047 75.8312 121.047C75.7219 121.047 75.6307 121.042 75.5578 121.031C75.4849 121.021 75.425 121.008 75.3781 120.992C75.3312 120.971 75.2974 120.945 75.2766 120.914C75.2557 120.883 75.2453 120.846 75.2453 120.805V119.875C74.8755 120.276 74.4901 120.589 74.0891 120.812C73.6932 121.036 73.2583 121.148 72.7844 121.148C72.2687 121.148 71.8286 121.049 71.4641 120.852C71.0995 120.648 70.8026 120.378 70.5734 120.039C70.3495 119.695 70.1854 119.294 70.0812 118.836C69.9771 118.372 69.925 117.885 69.925 117.375C69.925 116.771 69.9901 116.227 70.1203 115.742C70.2505 115.253 70.4432 114.836 70.6984 114.492C70.9536 114.148 71.2687 113.885 71.6437 113.703C72.024 113.516 72.4615 113.422 72.9562 113.422C73.3677 113.422 73.7427 113.513 74.0812 113.695C74.425 113.872 74.7635 114.135 75.0969 114.484V110.398C75.0969 110.362 75.1047 110.328 75.1203 110.297C75.1411 110.26 75.1776 110.234 75.2297 110.219C75.2818 110.198 75.3469 110.182 75.425 110.172C75.5083 110.156 75.6125 110.148 75.7375 110.148C75.8677 110.148 75.9745 110.156 76.0578 110.172C76.1411 110.182 76.2062 110.198 76.2531 110.219C76.3 110.234 76.3339 110.26 76.3547 110.297C76.3807 110.328 76.3937 110.362 76.3937 110.398V120.805ZM75.0969 115.859C74.7479 115.427 74.4094 115.099 74.0812 114.875C73.7583 114.646 73.4198 114.531 73.0656 114.531C72.7375 114.531 72.4589 114.609 72.2297 114.766C72.0005 114.922 71.813 115.128 71.6672 115.383C71.5266 115.638 71.4224 115.927 71.3547 116.25C71.2922 116.573 71.2609 116.901 71.2609 117.234C71.2609 117.589 71.287 117.935 71.3391 118.273C71.3964 118.612 71.4927 118.914 71.6281 119.18C71.7635 119.44 71.9432 119.651 72.1672 119.812C72.3911 119.969 72.6724 120.047 73.0109 120.047C73.1828 120.047 73.3469 120.023 73.5031 119.977C73.6646 119.93 73.8286 119.852 73.9953 119.742C74.162 119.633 74.3365 119.492 74.5187 119.32C74.701 119.143 74.8937 118.927 75.0969 118.672V115.859ZM84.2234 120.812C84.2234 120.875 84.2026 120.922 84.1609 120.953C84.1193 120.984 84.062 121.008 83.9891 121.023C83.9161 121.039 83.8094 121.047 83.6688 121.047C83.5333 121.047 83.424 121.039 83.3406 121.023C83.2625 121.008 83.2052 120.984 83.1688 120.953C83.1323 120.922 83.1141 120.875 83.1141 120.812V120.109C82.8068 120.438 82.463 120.693 82.0828 120.875C81.7078 121.057 81.3094 121.148 80.8875 121.148C80.5177 121.148 80.1818 121.099 79.8797 121C79.5828 120.906 79.3276 120.768 79.1141 120.586C78.9057 120.404 78.7417 120.18 78.6219 119.914C78.5073 119.648 78.45 119.346 78.45 119.008C78.45 118.612 78.5307 118.268 78.6922 117.977C78.8536 117.685 79.0854 117.443 79.3875 117.25C79.6896 117.057 80.0594 116.914 80.4969 116.82C80.9344 116.721 81.4266 116.672 81.9734 116.672H82.9422V116.125C82.9422 115.854 82.9135 115.615 82.8563 115.406C82.799 115.198 82.7052 115.026 82.575 114.891C82.45 114.75 82.2859 114.646 82.0828 114.578C81.8797 114.505 81.6297 114.469 81.3328 114.469C81.0151 114.469 80.7286 114.508 80.4734 114.586C80.2234 114.659 80.0021 114.742 79.8094 114.836C79.6219 114.924 79.463 115.008 79.3328 115.086C79.2078 115.159 79.1141 115.195 79.0516 115.195C79.0099 115.195 78.9734 115.185 78.9422 115.164C78.9109 115.143 78.8823 115.112 78.8563 115.07C78.8354 115.029 78.8198 114.977 78.8094 114.914C78.799 114.846 78.7938 114.773 78.7938 114.695C78.7938 114.565 78.8016 114.464 78.8172 114.391C78.838 114.312 78.8823 114.24 78.95 114.172C79.0229 114.104 79.1453 114.026 79.3172 113.938C79.4891 113.844 79.687 113.76 79.9109 113.688C80.1349 113.609 80.3797 113.547 80.6453 113.5C80.9109 113.448 81.1792 113.422 81.45 113.422C81.9552 113.422 82.3849 113.479 82.7391 113.594C83.0932 113.708 83.3797 113.878 83.5984 114.102C83.8172 114.32 83.976 114.594 84.075 114.922C84.174 115.25 84.2234 115.633 84.2234 116.07V120.812ZM82.9422 117.602H81.8406C81.4865 117.602 81.1792 117.633 80.9188 117.695C80.6583 117.753 80.4422 117.841 80.2703 117.961C80.0984 118.076 79.9708 118.216 79.8875 118.383C79.8094 118.544 79.7703 118.732 79.7703 118.945C79.7703 119.31 79.8849 119.602 80.1141 119.82C80.3484 120.034 80.674 120.141 81.0906 120.141C81.4292 120.141 81.7417 120.055 82.0281 119.883C82.3198 119.711 82.6245 119.448 82.9422 119.094V117.602ZM94.1797 120.289C94.1797 120.44 94.1693 120.56 94.1484 120.648C94.1276 120.737 94.0964 120.802 94.0547 120.844C94.013 120.885 93.9505 120.924 93.8672 120.961C93.7839 120.997 93.6875 121.026 93.5781 121.047C93.474 121.073 93.362 121.094 93.2422 121.109C93.1224 121.125 93.0026 121.133 92.8828 121.133C92.5182 121.133 92.2057 121.086 91.9453 120.992C91.6849 120.893 91.4714 120.747 91.3047 120.555C91.138 120.357 91.0156 120.109 90.9375 119.812C90.8646 119.51 90.8281 119.156 90.8281 118.75V114.641H89.8438C89.7656 114.641 89.7031 114.599 89.6562 114.516C89.6094 114.432 89.5859 114.297 89.5859 114.109C89.5859 114.01 89.5911 113.927 89.6016 113.859C89.6172 113.792 89.6354 113.737 89.6562 113.695C89.6771 113.648 89.7031 113.617 89.7344 113.602C89.7708 113.581 89.8099 113.57 89.8516 113.57H90.8281V111.898C90.8281 111.862 90.8359 111.828 90.8516 111.797C90.8724 111.766 90.9062 111.74 90.9531 111.719C91.0052 111.693 91.0729 111.674 91.1562 111.664C91.2396 111.654 91.3438 111.648 91.4688 111.648C91.599 111.648 91.7057 111.654 91.7891 111.664C91.8724 111.674 91.9375 111.693 91.9844 111.719C92.0312 111.74 92.0651 111.766 92.0859 111.797C92.1068 111.828 92.1172 111.862 92.1172 111.898V113.57H93.9219C93.9635 113.57 94 113.581 94.0312 113.602C94.0625 113.617 94.0885 113.648 94.1094 113.695C94.1354 113.737 94.1536 113.792 94.1641 113.859C94.1745 113.927 94.1797 114.01 94.1797 114.109C94.1797 114.297 94.1562 114.432 94.1094 114.516C94.0625 114.599 94 114.641 93.9219 114.641H92.1172V118.562C92.1172 119.047 92.1875 119.414 92.3281 119.664C92.474 119.909 92.7318 120.031 93.1016 120.031C93.2214 120.031 93.3281 120.021 93.4219 120C93.5156 119.974 93.599 119.948 93.6719 119.922C93.7448 119.896 93.8073 119.872 93.8594 119.852C93.9115 119.826 93.9583 119.812 94 119.812C94.026 119.812 94.0495 119.82 94.0703 119.836C94.0964 119.846 94.1146 119.87 94.125 119.906C94.1406 119.943 94.1536 119.992 94.1641 120.055C94.1745 120.117 94.1797 120.195 94.1797 120.289ZM100.142 114.234C100.142 114.349 100.14 114.445 100.134 114.523C100.129 114.602 100.119 114.664 100.103 114.711C100.088 114.753 100.067 114.786 100.041 114.812C100.02 114.833 99.9885 114.844 99.9469 114.844C99.9052 114.844 99.8531 114.833 99.7906 114.812C99.7333 114.786 99.6656 114.763 99.5875 114.742C99.5146 114.716 99.4313 114.693 99.3375 114.672C99.2438 114.651 99.1422 114.641 99.0328 114.641C98.9026 114.641 98.775 114.667 98.65 114.719C98.525 114.771 98.3922 114.857 98.2516 114.977C98.1161 115.096 97.9729 115.255 97.8219 115.453C97.6708 115.651 97.5042 115.893 97.3219 116.18V120.805C97.3219 120.846 97.3115 120.883 97.2906 120.914C97.2698 120.94 97.2359 120.964 97.1891 120.984C97.1422 121.005 97.0771 121.021 96.9938 121.031C96.9104 121.042 96.8036 121.047 96.6734 121.047C96.5484 121.047 96.4443 121.042 96.3609 121.031C96.2776 121.021 96.2099 121.005 96.1578 120.984C96.1109 120.964 96.0771 120.94 96.0563 120.914C96.0406 120.883 96.0328 120.846 96.0328 120.805V113.773C96.0328 113.732 96.0406 113.698 96.0563 113.672C96.0719 113.641 96.1031 113.615 96.15 113.594C96.1969 113.568 96.2568 113.552 96.3297 113.547C96.4026 113.536 96.499 113.531 96.6188 113.531C96.7333 113.531 96.8271 113.536 96.9 113.547C96.9781 113.552 97.038 113.568 97.0797 113.594C97.1214 113.615 97.15 113.641 97.1656 113.672C97.1865 113.698 97.1969 113.732 97.1969 113.773V114.797C97.3896 114.516 97.5693 114.286 97.7359 114.109C97.9078 113.932 98.0693 113.794 98.2203 113.695C98.3714 113.591 98.5198 113.521 98.6656 113.484C98.8167 113.443 98.9677 113.422 99.1188 113.422C99.1865 113.422 99.262 113.427 99.3453 113.438C99.4339 113.443 99.525 113.456 99.6188 113.477C99.7125 113.497 99.7958 113.521 99.8688 113.547C99.9469 113.573 100.002 113.599 100.033 113.625C100.064 113.651 100.085 113.677 100.095 113.703C100.106 113.724 100.114 113.753 100.119 113.789C100.129 113.826 100.134 113.88 100.134 113.953C100.14 114.021 100.142 114.115 100.142 114.234ZM106.73 120.812C106.73 120.875 106.709 120.922 106.667 120.953C106.626 120.984 106.568 121.008 106.495 121.023C106.422 121.039 106.316 121.047 106.175 121.047C106.04 121.047 105.93 121.039 105.847 121.023C105.769 121.008 105.711 120.984 105.675 120.953C105.639 120.922 105.62 120.875 105.62 120.812V120.109C105.313 120.438 104.969 120.693 104.589 120.875C104.214 121.057 103.816 121.148 103.394 121.148C103.024 121.148 102.688 121.099 102.386 121C102.089 120.906 101.834 120.768 101.62 120.586C101.412 120.404 101.248 120.18 101.128 119.914C101.014 119.648 100.956 119.346 100.956 119.008C100.956 118.612 101.037 118.268 101.198 117.977C101.36 117.685 101.592 117.443 101.894 117.25C102.196 117.057 102.566 116.914 103.003 116.82C103.441 116.721 103.933 116.672 104.48 116.672H105.448V116.125C105.448 115.854 105.42 115.615 105.363 115.406C105.305 115.198 105.211 115.026 105.081 114.891C104.956 114.75 104.792 114.646 104.589 114.578C104.386 114.505 104.136 114.469 103.839 114.469C103.521 114.469 103.235 114.508 102.98 114.586C102.73 114.659 102.508 114.742 102.316 114.836C102.128 114.924 101.969 115.008 101.839 115.086C101.714 115.159 101.62 115.195 101.558 115.195C101.516 115.195 101.48 115.185 101.448 115.164C101.417 115.143 101.389 115.112 101.363 115.07C101.342 115.029 101.326 114.977 101.316 114.914C101.305 114.846 101.3 114.773 101.3 114.695C101.3 114.565 101.308 114.464 101.323 114.391C101.344 114.312 101.389 114.24 101.456 114.172C101.529 114.104 101.652 114.026 101.823 113.938C101.995 113.844 102.193 113.76 102.417 113.688C102.641 113.609 102.886 113.547 103.152 113.5C103.417 113.448 103.685 113.422 103.956 113.422C104.461 113.422 104.891 113.479 105.245 113.594C105.599 113.708 105.886 113.878 106.105 114.102C106.323 114.32 106.482 114.594 106.581 114.922C106.68 115.25 106.73 115.633 106.73 116.07V120.812ZM105.448 117.602H104.347C103.993 117.602 103.685 117.633 103.425 117.695C103.165 117.753 102.948 117.841 102.777 117.961C102.605 118.076 102.477 118.216 102.394 118.383C102.316 118.544 102.277 118.732 102.277 118.945C102.277 119.31 102.391 119.602 102.62 119.82C102.855 120.034 103.18 120.141 103.597 120.141C103.935 120.141 104.248 120.055 104.534 119.883C104.826 119.711 105.131 119.448 105.448 119.094V117.602ZM115.309 120.805C115.309 120.846 115.299 120.883 115.278 120.914C115.257 120.94 115.223 120.964 115.177 120.984C115.13 121.005 115.065 121.021 114.981 121.031C114.898 121.042 114.794 121.047 114.669 121.047C114.539 121.047 114.432 121.042 114.348 121.031C114.265 121.021 114.2 121.005 114.153 120.984C114.106 120.964 114.072 120.94 114.052 120.914C114.031 120.883 114.02 120.846 114.02 120.805V116.688C114.02 116.286 113.989 115.964 113.927 115.719C113.864 115.474 113.773 115.263 113.653 115.086C113.533 114.909 113.377 114.773 113.184 114.68C112.997 114.586 112.778 114.539 112.528 114.539C112.205 114.539 111.882 114.654 111.559 114.883C111.236 115.112 110.898 115.448 110.544 115.891V120.805C110.544 120.846 110.533 120.883 110.512 120.914C110.492 120.94 110.458 120.964 110.411 120.984C110.364 121.005 110.299 121.021 110.216 121.031C110.132 121.042 110.026 121.047 109.895 121.047C109.77 121.047 109.666 121.042 109.583 121.031C109.499 121.021 109.432 121.005 109.38 120.984C109.333 120.964 109.299 120.94 109.278 120.914C109.262 120.883 109.255 120.846 109.255 120.805V113.773C109.255 113.732 109.262 113.698 109.278 113.672C109.294 113.641 109.325 113.615 109.372 113.594C109.419 113.568 109.479 113.552 109.552 113.547C109.624 113.536 109.721 113.531 109.841 113.531C109.955 113.531 110.049 113.536 110.122 113.547C110.2 113.552 110.26 113.568 110.302 113.594C110.343 113.615 110.372 113.641 110.387 113.672C110.408 113.698 110.419 113.732 110.419 113.773V114.703C110.815 114.26 111.208 113.938 111.598 113.734C111.994 113.526 112.393 113.422 112.794 113.422C113.262 113.422 113.656 113.503 113.973 113.664C114.296 113.82 114.557 114.031 114.755 114.297C114.953 114.562 115.093 114.875 115.177 115.234C115.265 115.589 115.309 116.016 115.309 116.516V120.805ZM122.225 118.891C122.225 119.25 122.157 119.57 122.022 119.852C121.892 120.133 121.704 120.37 121.459 120.562C121.215 120.755 120.923 120.901 120.584 121C120.246 121.099 119.873 121.148 119.467 121.148C119.217 121.148 118.978 121.128 118.748 121.086C118.524 121.049 118.321 121.003 118.139 120.945C117.962 120.883 117.811 120.82 117.686 120.758C117.561 120.69 117.47 120.63 117.412 120.578C117.355 120.526 117.314 120.453 117.287 120.359C117.261 120.266 117.248 120.138 117.248 119.977C117.248 119.878 117.254 119.794 117.264 119.727C117.274 119.659 117.287 119.604 117.303 119.562C117.319 119.521 117.34 119.492 117.366 119.477C117.397 119.456 117.431 119.445 117.467 119.445C117.524 119.445 117.608 119.482 117.717 119.555C117.832 119.622 117.97 119.698 118.131 119.781C118.298 119.865 118.493 119.943 118.717 120.016C118.941 120.083 119.199 120.117 119.491 120.117C119.709 120.117 119.907 120.094 120.084 120.047C120.261 120 120.415 119.932 120.545 119.844C120.676 119.75 120.774 119.633 120.842 119.492C120.915 119.352 120.952 119.185 120.952 118.992C120.952 118.794 120.899 118.628 120.795 118.492C120.696 118.357 120.564 118.237 120.397 118.133C120.23 118.029 120.043 117.938 119.834 117.859C119.626 117.776 119.41 117.69 119.186 117.602C118.967 117.513 118.751 117.414 118.537 117.305C118.329 117.19 118.142 117.052 117.975 116.891C117.808 116.729 117.673 116.536 117.569 116.312C117.47 116.089 117.42 115.82 117.42 115.508C117.42 115.232 117.472 114.969 117.577 114.719C117.686 114.464 117.847 114.242 118.061 114.055C118.274 113.862 118.54 113.708 118.858 113.594C119.181 113.479 119.556 113.422 119.983 113.422C120.17 113.422 120.358 113.438 120.545 113.469C120.733 113.5 120.902 113.539 121.053 113.586C121.204 113.633 121.332 113.685 121.436 113.742C121.545 113.794 121.626 113.841 121.678 113.883C121.735 113.924 121.772 113.961 121.787 113.992C121.808 114.023 121.821 114.06 121.827 114.102C121.837 114.138 121.845 114.185 121.85 114.242C121.86 114.299 121.866 114.37 121.866 114.453C121.866 114.542 121.86 114.62 121.85 114.688C121.845 114.75 121.832 114.802 121.811 114.844C121.795 114.885 121.774 114.917 121.748 114.938C121.722 114.953 121.694 114.961 121.662 114.961C121.616 114.961 121.548 114.932 121.459 114.875C121.371 114.818 121.256 114.758 121.116 114.695C120.975 114.628 120.808 114.565 120.616 114.508C120.428 114.451 120.212 114.422 119.967 114.422C119.748 114.422 119.556 114.448 119.389 114.5C119.222 114.547 119.084 114.617 118.975 114.711C118.871 114.799 118.79 114.906 118.733 115.031C118.681 115.156 118.655 115.292 118.655 115.438C118.655 115.641 118.707 115.812 118.811 115.953C118.915 116.089 119.051 116.208 119.217 116.312C119.384 116.417 119.574 116.51 119.787 116.594C120.001 116.677 120.217 116.763 120.436 116.852C120.66 116.94 120.879 117.039 121.092 117.148C121.311 117.258 121.504 117.391 121.67 117.547C121.837 117.703 121.97 117.891 122.069 118.109C122.173 118.328 122.225 118.589 122.225 118.891ZM129.523 120.812C129.523 120.875 129.503 120.922 129.461 120.953C129.419 120.984 129.362 121.008 129.289 121.023C129.216 121.039 129.109 121.047 128.969 121.047C128.833 121.047 128.724 121.039 128.641 121.023C128.562 121.008 128.505 120.984 128.469 120.953C128.432 120.922 128.414 120.875 128.414 120.812V120.109C128.107 120.438 127.763 120.693 127.383 120.875C127.008 121.057 126.609 121.148 126.188 121.148C125.818 121.148 125.482 121.099 125.18 121C124.883 120.906 124.628 120.768 124.414 120.586C124.206 120.404 124.042 120.18 123.922 119.914C123.807 119.648 123.75 119.346 123.75 119.008C123.75 118.612 123.831 118.268 123.992 117.977C124.154 117.685 124.385 117.443 124.688 117.25C124.99 117.057 125.359 116.914 125.797 116.82C126.234 116.721 126.727 116.672 127.273 116.672H128.242V116.125C128.242 115.854 128.214 115.615 128.156 115.406C128.099 115.198 128.005 115.026 127.875 114.891C127.75 114.75 127.586 114.646 127.383 114.578C127.18 114.505 126.93 114.469 126.633 114.469C126.315 114.469 126.029 114.508 125.773 114.586C125.523 114.659 125.302 114.742 125.109 114.836C124.922 114.924 124.763 115.008 124.633 115.086C124.508 115.159 124.414 115.195 124.352 115.195C124.31 115.195 124.273 115.185 124.242 115.164C124.211 115.143 124.182 115.112 124.156 115.07C124.135 115.029 124.12 114.977 124.109 114.914C124.099 114.846 124.094 114.773 124.094 114.695C124.094 114.565 124.102 114.464 124.117 114.391C124.138 114.312 124.182 114.24 124.25 114.172C124.323 114.104 124.445 114.026 124.617 113.938C124.789 113.844 124.987 113.76 125.211 113.688C125.435 113.609 125.68 113.547 125.945 113.5C126.211 113.448 126.479 113.422 126.75 113.422C127.255 113.422 127.685 113.479 128.039 113.594C128.393 113.708 128.68 113.878 128.898 114.102C129.117 114.32 129.276 114.594 129.375 114.922C129.474 115.25 129.523 115.633 129.523 116.07V120.812ZM128.242 117.602H127.141C126.786 117.602 126.479 117.633 126.219 117.695C125.958 117.753 125.742 117.841 125.57 117.961C125.398 118.076 125.271 118.216 125.188 118.383C125.109 118.544 125.07 118.732 125.07 118.945C125.07 119.31 125.185 119.602 125.414 119.82C125.648 120.034 125.974 120.141 126.391 120.141C126.729 120.141 127.042 120.055 127.328 119.883C127.62 119.711 127.924 119.448 128.242 119.094V117.602ZM137.822 120.797C137.822 120.839 137.811 120.875 137.791 120.906C137.77 120.938 137.733 120.964 137.681 120.984C137.634 121.005 137.567 121.021 137.478 121.031C137.39 121.042 137.278 121.047 137.142 121.047C137.002 121.047 136.884 121.042 136.791 121.031C136.702 121.026 136.627 121.016 136.564 121C136.502 120.979 136.449 120.953 136.408 120.922C136.371 120.885 136.338 120.844 136.306 120.797L133.338 116.906V120.805C133.338 120.846 133.327 120.883 133.306 120.914C133.285 120.94 133.252 120.964 133.205 120.984C133.158 121.005 133.093 121.021 133.009 121.031C132.926 121.042 132.819 121.047 132.689 121.047C132.564 121.047 132.46 121.042 132.377 121.031C132.293 121.021 132.226 121.005 132.173 120.984C132.127 120.964 132.093 120.94 132.072 120.914C132.056 120.883 132.048 120.846 132.048 120.805V110.367C132.048 110.326 132.056 110.289 132.072 110.258C132.093 110.227 132.127 110.201 132.173 110.18C132.226 110.159 132.293 110.143 132.377 110.133C132.46 110.122 132.564 110.117 132.689 110.117C132.819 110.117 132.926 110.122 133.009 110.133C133.093 110.143 133.158 110.159 133.205 110.18C133.252 110.201 133.285 110.227 133.306 110.258C133.327 110.289 133.338 110.326 133.338 110.367V116.727L135.994 113.805C136.035 113.753 136.08 113.711 136.127 113.68C136.173 113.643 136.228 113.615 136.291 113.594C136.358 113.568 136.436 113.552 136.525 113.547C136.614 113.536 136.72 113.531 136.845 113.531C136.976 113.531 137.085 113.536 137.173 113.547C137.262 113.552 137.332 113.565 137.384 113.586C137.442 113.602 137.481 113.625 137.502 113.656C137.528 113.682 137.541 113.719 137.541 113.766C137.541 113.828 137.522 113.891 137.486 113.953C137.455 114.016 137.4 114.089 137.322 114.172L134.775 116.719L137.634 120.43C137.702 120.518 137.749 120.591 137.775 120.648C137.806 120.701 137.822 120.75 137.822 120.797ZM143.738 118.891C143.738 119.25 143.67 119.57 143.534 119.852C143.404 120.133 143.217 120.37 142.972 120.562C142.727 120.755 142.435 120.901 142.097 121C141.758 121.099 141.386 121.148 140.98 121.148C140.73 121.148 140.49 121.128 140.261 121.086C140.037 121.049 139.834 121.003 139.652 120.945C139.474 120.883 139.323 120.82 139.198 120.758C139.073 120.69 138.982 120.63 138.925 120.578C138.868 120.526 138.826 120.453 138.8 120.359C138.774 120.266 138.761 120.138 138.761 119.977C138.761 119.878 138.766 119.794 138.777 119.727C138.787 119.659 138.8 119.604 138.816 119.562C138.831 119.521 138.852 119.492 138.878 119.477C138.909 119.456 138.943 119.445 138.98 119.445C139.037 119.445 139.12 119.482 139.23 119.555C139.344 119.622 139.482 119.698 139.644 119.781C139.81 119.865 140.006 119.943 140.23 120.016C140.454 120.083 140.711 120.117 141.003 120.117C141.222 120.117 141.42 120.094 141.597 120.047C141.774 120 141.928 119.932 142.058 119.844C142.188 119.75 142.287 119.633 142.355 119.492C142.428 119.352 142.464 119.185 142.464 118.992C142.464 118.794 142.412 118.628 142.308 118.492C142.209 118.357 142.076 118.237 141.909 118.133C141.743 118.029 141.555 117.938 141.347 117.859C141.139 117.776 140.922 117.69 140.698 117.602C140.48 117.513 140.264 117.414 140.05 117.305C139.842 117.19 139.654 117.052 139.488 116.891C139.321 116.729 139.185 116.536 139.081 116.312C138.982 116.089 138.933 115.82 138.933 115.508C138.933 115.232 138.985 114.969 139.089 114.719C139.198 114.464 139.36 114.242 139.573 114.055C139.787 113.862 140.053 113.708 140.37 113.594C140.693 113.479 141.068 113.422 141.495 113.422C141.683 113.422 141.87 113.438 142.058 113.469C142.245 113.5 142.415 113.539 142.566 113.586C142.717 113.633 142.844 113.685 142.948 113.742C143.058 113.794 143.139 113.841 143.191 113.883C143.248 113.924 143.284 113.961 143.3 113.992C143.321 114.023 143.334 114.06 143.339 114.102C143.349 114.138 143.357 114.185 143.363 114.242C143.373 114.299 143.378 114.37 143.378 114.453C143.378 114.542 143.373 114.62 143.363 114.688C143.357 114.75 143.344 114.802 143.323 114.844C143.308 114.885 143.287 114.917 143.261 114.938C143.235 114.953 143.206 114.961 143.175 114.961C143.128 114.961 143.06 114.932 142.972 114.875C142.883 114.818 142.769 114.758 142.628 114.695C142.488 114.628 142.321 114.565 142.128 114.508C141.941 114.451 141.724 114.422 141.48 114.422C141.261 114.422 141.068 114.448 140.902 114.5C140.735 114.547 140.597 114.617 140.488 114.711C140.383 114.799 140.303 114.906 140.245 115.031C140.193 115.156 140.167 115.292 140.167 115.438C140.167 115.641 140.219 115.812 140.323 115.953C140.428 116.089 140.563 116.208 140.73 116.312C140.896 116.417 141.086 116.51 141.3 116.594C141.514 116.677 141.73 116.763 141.948 116.852C142.172 116.94 142.391 117.039 142.605 117.148C142.823 117.258 143.016 117.391 143.183 117.547C143.349 117.703 143.482 117.891 143.581 118.109C143.685 118.328 143.738 118.589 143.738 118.891ZM147.028 120.805C147.028 120.846 147.018 120.883 146.997 120.914C146.976 120.94 146.942 120.964 146.895 120.984C146.848 121.005 146.783 121.021 146.7 121.031C146.617 121.042 146.51 121.047 146.38 121.047C146.255 121.047 146.151 121.042 146.067 121.031C145.984 121.021 145.916 121.005 145.864 120.984C145.817 120.964 145.783 120.94 145.762 120.914C145.747 120.883 145.739 120.846 145.739 120.805V113.773C145.739 113.737 145.747 113.703 145.762 113.672C145.783 113.641 145.817 113.615 145.864 113.594C145.916 113.573 145.984 113.557 146.067 113.547C146.151 113.536 146.255 113.531 146.38 113.531C146.51 113.531 146.617 113.536 146.7 113.547C146.783 113.557 146.848 113.573 146.895 113.594C146.942 113.615 146.976 113.641 146.997 113.672C147.018 113.703 147.028 113.737 147.028 113.773V120.805ZM147.177 111.398C147.177 111.701 147.119 111.906 147.005 112.016C146.89 112.125 146.679 112.18 146.372 112.18C146.07 112.18 145.861 112.128 145.747 112.023C145.637 111.914 145.583 111.711 145.583 111.414C145.583 111.112 145.64 110.906 145.755 110.797C145.869 110.688 146.08 110.633 146.387 110.633C146.69 110.633 146.895 110.688 147.005 110.797C147.119 110.901 147.177 111.102 147.177 111.398Z" fill="black"/>
</svg>
