<svg width="197" height="158" viewBox="0 0 197 158" fill="none" xmlns="http://www.w3.org/2000/svg">
<path fill-rule="evenodd" clip-rule="evenodd" d="M163.116 51.3496C166.162 51.3496 168.632 53.8255 168.632 56.8796C168.632 59.9337 166.162 62.4096 163.116 62.4096H131.596C134.642 62.4096 137.112 64.8855 137.112 67.9396C137.112 70.9937 134.642 73.4696 131.596 73.4696H148.932C151.978 73.4696 154.448 75.9455 154.448 78.9996C154.448 82.0537 151.978 84.5296 148.932 84.5296H140.915C137.074 84.5296 133.96 87.0055 133.96 90.0596C133.96 92.0957 135.536 93.939 138.688 95.5896C141.734 95.5896 144.204 98.0655 144.204 101.12C144.204 104.174 141.734 106.65 138.688 106.65H73.284C70.2376 106.65 67.768 104.174 67.768 101.12C67.768 98.0655 70.2376 95.5896 73.284 95.5896H42.552C39.5056 95.5896 37.036 93.1137 37.036 90.0596C37.036 87.0055 39.5056 84.5296 42.552 84.5296H74.072C77.1184 84.5296 79.588 82.0537 79.588 78.9996C79.588 75.9455 77.1184 73.4696 74.072 73.4696H54.372C51.3256 73.4696 48.856 70.9937 48.856 67.9396C48.856 64.8855 51.3256 62.4096 54.372 62.4096H85.892C82.8456 62.4096 80.376 59.9337 80.376 56.8796C80.376 53.8255 82.8456 51.3496 85.892 51.3496H163.116ZM163.116 73.4696C166.162 73.4696 168.632 75.9455 168.632 78.9996C168.632 82.0537 166.162 84.5296 163.116 84.5296C160.07 84.5296 157.6 82.0537 157.6 78.9996C157.6 75.9455 160.07 73.4696 163.116 73.4696Z" fill="#F3F7FF"/>
<path fill-rule="evenodd" clip-rule="evenodd" d="M121.11 50.5599L128.426 104.143L129.083 109.519C129.294 111.251 128.065 112.827 126.337 113.041L80.1766 118.734C78.4482 118.947 76.8755 117.716 76.6638 115.984L69.5746 57.9894C69.4687 57.1235 70.0835 56.3351 70.9477 56.2285C70.9531 56.2279 70.9586 56.2272 70.9641 56.2266L74.7936 55.795M77.8875 55.4343L81.5023 55.0271L77.8875 55.4343Z" fill="white"/>
<path d="M122.348 50.39C122.255 49.706 121.624 49.2276 120.94 49.3214C120.256 49.4152 119.778 50.0457 119.871 50.7298L122.348 50.39ZM128.426 104.143L129.666 103.991C129.666 103.985 129.665 103.979 129.664 103.973L128.426 104.143ZM129.083 109.519L130.323 109.366L129.083 109.519ZM126.337 113.041L126.489 114.281L126.337 113.041ZM80.1766 118.734L80.3288 119.974L80.1766 118.734ZM76.6638 115.984L77.9045 115.831L76.6638 115.984ZM69.5746 57.9894L68.3339 58.1418L69.5746 57.9894ZM70.9641 56.2266L71.1033 57.4688L70.9641 56.2266ZM74.9329 57.0372C75.6189 56.9599 76.1127 56.3411 76.0358 55.655C75.9589 54.969 75.3404 54.4755 74.6544 54.5528L74.9329 57.0372ZM77.7484 54.1921C77.0623 54.2694 76.5685 54.8882 76.6454 55.5743C76.7223 56.2603 77.3407 56.7538 78.0267 56.6766L77.7484 54.1921ZM81.6415 56.2693C82.3275 56.1921 82.8213 55.5732 82.7445 54.8872C82.6676 54.2011 82.0492 53.7076 81.3632 53.7849L81.6415 56.2693ZM119.871 50.7298L127.187 104.313L129.664 103.973L122.348 50.39L119.871 50.7298ZM127.185 104.296L127.842 109.671L130.323 109.366L129.666 103.991L127.185 104.296ZM127.842 109.671C127.97 110.72 127.226 111.671 126.184 111.8L126.489 114.281C128.904 113.983 130.619 111.781 130.323 109.366L127.842 109.671ZM126.184 111.8L80.0243 117.493L80.3288 119.974L126.489 114.281L126.184 111.8ZM80.0243 117.493C78.9835 117.621 78.0326 116.88 77.9045 115.831L75.4231 116.136C75.7183 118.551 77.9129 120.272 80.3288 119.974L80.0243 117.493ZM77.9045 115.831L70.8153 57.837L68.3339 58.1418L75.4231 116.136L77.9045 115.831ZM70.8153 57.837C70.7929 57.6539 70.9228 57.4911 71.0999 57.4692L70.7954 54.9878C69.2441 55.1792 68.1446 56.5931 68.3339 58.1418L70.8153 57.837ZM71.0999 57.4692C71.101 57.4691 71.1022 57.469 71.1033 57.4688L70.8248 54.9844C70.815 54.9855 70.8052 54.9866 70.7954 54.9878L71.0999 57.4692ZM71.1033 57.4688L74.9329 57.0372L74.6544 54.5528L70.8248 54.9844L71.1033 57.4688ZM78.0267 56.6766L81.6415 56.2693L81.3632 53.7849L77.7484 54.1921L78.0267 56.6766Z" fill="#1F64E7"/>
<path fill-rule="evenodd" clip-rule="evenodd" d="M119.098 53.9325L125.733 102.505L126.33 107.378C126.522 108.947 125.423 110.374 123.876 110.565L82.5519 115.652C81.0046 115.842 79.5944 114.724 79.4021 113.154L73.031 61.1336C72.8967 60.0372 73.6766 59.039 74.7729 58.9041L79.4643 58.3266" fill="#E8F0FE"/>
<path d="M85.3074 43.5C85.3074 41.9812 86.5386 40.75 88.0574 40.75H122.754C123.484 40.75 124.185 41.0405 124.7 41.5573L134.8 51.676C135.314 52.1916 135.603 52.8903 135.603 53.6187V101.86C135.603 103.379 134.372 104.61 132.853 104.61H88.0574C86.5386 104.61 85.3074 103.379 85.3074 101.86V43.5Z" fill="white" stroke="#1F64E7" stroke-width="2.5"/>
<path d="M123.457 41.3984V50.5602C123.457 51.8691 124.516 52.9302 125.821 52.9302H132.073" stroke="#1F64E7" stroke-width="2.5" stroke-linecap="round" stroke-linejoin="round"/>
<path d="M109.926 85.1011C112.32 85.1011 114.26 83.1558 114.26 80.7561C114.26 78.3565 112.32 76.4111 109.926 76.4111C107.532 76.4111 105.592 78.3565 105.592 80.7561C105.592 83.1558 107.532 85.1011 109.926 85.1011Z" stroke="#1F64E7" stroke-width="2.5"/>
<path d="M97.712 71.6709L103.228 67.3313L97.712 63.2002" stroke="#1F64E7" stroke-width="2.5" stroke-linecap="round" stroke-linejoin="round"/>
<path d="M122.14 71.6709L116.624 67.3313L122.14 63.2002" stroke="#1F64E7" stroke-width="2.5" stroke-linecap="round" stroke-linejoin="round"/>
<path d="M128.444 30.8103C129.75 30.8103 130.808 29.7492 130.808 28.4403C130.808 27.1314 129.75 26.0703 128.444 26.0703C127.138 26.0703 126.08 27.1314 126.08 28.4403C126.08 29.7492 127.138 30.8103 128.444 30.8103Z" stroke="#75A4FE" stroke-width="2"/>
<path d="M159.176 41.8699C160.482 41.8699 161.54 40.8088 161.54 39.4999C161.54 38.191 160.482 37.1299 159.176 37.1299C157.87 37.1299 156.812 38.191 156.812 39.4999C156.812 40.8088 157.87 41.8699 159.176 41.8699Z" fill="#75A4FE"/>
<path d="M147.547 35.3584L140.961 41.9614M140.861 35.3584L147.447 41.9614" stroke="#75A4FE" stroke-width="2.5" stroke-linecap="round" stroke-linejoin="round"/>
<path d="M67.7679 38.3906L72.4959 43.1306M72.4959 38.3906L67.7679 43.1306L72.4959 38.3906Z" stroke="#75A4FE" stroke-width="2.5" stroke-linecap="round" stroke-linejoin="round"/>
<path d="M78.4818 33.1804C79.7874 33.1804 80.8458 32.1193 80.8458 30.8104C80.8458 29.5015 79.7874 28.4404 78.4818 28.4404C77.1762 28.4404 76.1178 29.5015 76.1178 30.8104C76.1178 32.1193 77.1762 33.1804 78.4818 33.1804Z" fill="#75A4FE"/>
<path d="M15.6797 142.469C15.6797 142.568 15.6745 142.654 15.6641 142.727C15.6536 142.799 15.6354 142.859 15.6094 142.906C15.5885 142.948 15.5599 142.979 15.5234 143C15.4922 143.021 15.4557 143.031 15.4141 143.031H12.5703V151.797C12.5703 151.839 12.5599 151.875 12.5391 151.906C12.5182 151.938 12.4818 151.964 12.4297 151.984C12.3776 152 12.3073 152.013 12.2188 152.023C12.1354 152.039 12.0286 152.047 11.8984 152.047C11.7734 152.047 11.6667 152.039 11.5781 152.023C11.4896 152.013 11.4193 152 11.3672 151.984C11.3151 151.964 11.2786 151.938 11.2578 151.906C11.237 151.875 11.2266 151.839 11.2266 151.797V143.031H8.38281C8.34115 143.031 8.30208 143.021 8.26562 143C8.23438 142.979 8.20833 142.948 8.1875 142.906C8.16667 142.859 8.14844 142.799 8.13281 142.727C8.1224 142.654 8.11719 142.568 8.11719 142.469C8.11719 142.37 8.1224 142.284 8.13281 142.211C8.14844 142.133 8.16667 142.07 8.1875 142.023C8.20833 141.977 8.23438 141.943 8.26562 141.922C8.30208 141.901 8.34115 141.891 8.38281 141.891H15.4141C15.4557 141.891 15.4922 141.901 15.5234 141.922C15.5599 141.943 15.5885 141.977 15.6094 142.023C15.6354 142.07 15.6536 142.133 15.6641 142.211C15.6745 142.284 15.6797 142.37 15.6797 142.469ZM18.4313 151.805C18.4313 151.846 18.4208 151.883 18.4 151.914C18.3792 151.94 18.3453 151.964 18.2984 151.984C18.2516 152.005 18.1865 152.021 18.1031 152.031C18.0198 152.042 17.913 152.047 17.7828 152.047C17.6578 152.047 17.5536 152.042 17.4703 152.031C17.387 152.021 17.3193 152.005 17.2672 151.984C17.2203 151.964 17.1865 151.94 17.1656 151.914C17.15 151.883 17.1422 151.846 17.1422 151.805V144.773C17.1422 144.737 17.15 144.703 17.1656 144.672C17.1865 144.641 17.2203 144.615 17.2672 144.594C17.3193 144.573 17.387 144.557 17.4703 144.547C17.5536 144.536 17.6578 144.531 17.7828 144.531C17.913 144.531 18.0198 144.536 18.1031 144.547C18.1865 144.557 18.2516 144.573 18.2984 144.594C18.3453 144.615 18.3792 144.641 18.4 144.672C18.4208 144.703 18.4313 144.737 18.4313 144.773V151.805ZM18.5797 142.398C18.5797 142.701 18.5224 142.906 18.4078 143.016C18.2932 143.125 18.0823 143.18 17.775 143.18C17.4729 143.18 17.2646 143.128 17.15 143.023C17.0406 142.914 16.9859 142.711 16.9859 142.414C16.9859 142.112 17.0432 141.906 17.1578 141.797C17.2724 141.688 17.4833 141.633 17.7906 141.633C18.0927 141.633 18.2984 141.688 18.4078 141.797C18.5224 141.901 18.5797 142.102 18.5797 142.398ZM26.9875 151.805C26.9875 151.846 26.9771 151.883 26.9563 151.914C26.9406 151.945 26.9094 151.971 26.8625 151.992C26.8208 152.008 26.7635 152.021 26.6906 152.031C26.6177 152.042 26.5292 152.047 26.425 152.047C26.3156 152.047 26.2245 152.042 26.1516 152.031C26.0786 152.021 26.0188 152.008 25.9719 151.992C25.925 151.971 25.8911 151.945 25.8703 151.914C25.8495 151.883 25.8391 151.846 25.8391 151.805V150.875C25.4693 151.276 25.0839 151.589 24.6828 151.812C24.287 152.036 23.8521 152.148 23.3781 152.148C22.8625 152.148 22.4224 152.049 22.0578 151.852C21.6932 151.648 21.3964 151.378 21.1672 151.039C20.9432 150.695 20.7792 150.294 20.675 149.836C20.5708 149.372 20.5188 148.885 20.5188 148.375C20.5188 147.771 20.5839 147.227 20.7141 146.742C20.8443 146.253 21.037 145.836 21.2922 145.492C21.5474 145.148 21.8625 144.885 22.2375 144.703C22.6177 144.516 23.0552 144.422 23.55 144.422C23.9615 144.422 24.3365 144.513 24.675 144.695C25.0188 144.872 25.3573 145.135 25.6906 145.484V141.398C25.6906 141.362 25.6984 141.328 25.7141 141.297C25.7349 141.26 25.7714 141.234 25.8234 141.219C25.8755 141.198 25.9406 141.182 26.0188 141.172C26.1021 141.156 26.2063 141.148 26.3313 141.148C26.4615 141.148 26.5682 141.156 26.6516 141.172C26.7349 141.182 26.8 141.198 26.8469 141.219C26.8938 141.234 26.9276 141.26 26.9484 141.297C26.9745 141.328 26.9875 141.362 26.9875 141.398V151.805ZM25.6906 146.859C25.3417 146.427 25.0031 146.099 24.675 145.875C24.3521 145.646 24.0135 145.531 23.6594 145.531C23.3313 145.531 23.0526 145.609 22.8234 145.766C22.5943 145.922 22.4068 146.128 22.2609 146.383C22.1203 146.638 22.0161 146.927 21.9484 147.25C21.8859 147.573 21.8547 147.901 21.8547 148.234C21.8547 148.589 21.8807 148.935 21.9328 149.273C21.9901 149.612 22.0865 149.914 22.2219 150.18C22.3573 150.44 22.537 150.651 22.7609 150.812C22.9849 150.969 23.2661 151.047 23.6047 151.047C23.7766 151.047 23.9406 151.023 24.0969 150.977C24.2583 150.93 24.4224 150.852 24.5891 150.742C24.7557 150.633 24.9302 150.492 25.1125 150.32C25.2948 150.143 25.4875 149.927 25.6906 149.672V146.859ZM34.8172 151.812C34.8172 151.875 34.7964 151.922 34.7547 151.953C34.713 151.984 34.6557 152.008 34.5828 152.023C34.5099 152.039 34.4031 152.047 34.2625 152.047C34.1271 152.047 34.0177 152.039 33.9344 152.023C33.8563 152.008 33.799 151.984 33.7625 151.953C33.726 151.922 33.7078 151.875 33.7078 151.812V151.109C33.4005 151.438 33.0568 151.693 32.6766 151.875C32.3016 152.057 31.9031 152.148 31.4813 152.148C31.1115 152.148 30.7755 152.099 30.4734 152C30.1766 151.906 29.9214 151.768 29.7078 151.586C29.4995 151.404 29.3354 151.18 29.2156 150.914C29.101 150.648 29.0438 150.346 29.0438 150.008C29.0438 149.612 29.1245 149.268 29.2859 148.977C29.4474 148.685 29.6792 148.443 29.9813 148.25C30.2833 148.057 30.6531 147.914 31.0906 147.82C31.5281 147.721 32.0203 147.672 32.5672 147.672H33.5359V147.125C33.5359 146.854 33.5073 146.615 33.45 146.406C33.3927 146.198 33.299 146.026 33.1688 145.891C33.0438 145.75 32.8797 145.646 32.6766 145.578C32.4734 145.505 32.2234 145.469 31.9266 145.469C31.6089 145.469 31.3224 145.508 31.0672 145.586C30.8172 145.659 30.5958 145.742 30.4031 145.836C30.2156 145.924 30.0568 146.008 29.9266 146.086C29.8016 146.159 29.7078 146.195 29.6453 146.195C29.6036 146.195 29.5672 146.185 29.5359 146.164C29.5047 146.143 29.476 146.112 29.45 146.07C29.4292 146.029 29.4135 145.977 29.4031 145.914C29.3927 145.846 29.3875 145.773 29.3875 145.695C29.3875 145.565 29.3953 145.464 29.4109 145.391C29.4318 145.312 29.476 145.24 29.5438 145.172C29.6167 145.104 29.7391 145.026 29.9109 144.938C30.0828 144.844 30.2807 144.76 30.5047 144.688C30.7286 144.609 30.9734 144.547 31.2391 144.5C31.5047 144.448 31.7729 144.422 32.0438 144.422C32.549 144.422 32.9786 144.479 33.3328 144.594C33.687 144.708 33.9734 144.878 34.1922 145.102C34.4109 145.32 34.5698 145.594 34.6688 145.922C34.7677 146.25 34.8172 146.633 34.8172 147.07V151.812ZM33.5359 148.602H32.4344C32.0802 148.602 31.7729 148.633 31.5125 148.695C31.2521 148.753 31.0359 148.841 30.8641 148.961C30.6922 149.076 30.5646 149.216 30.4813 149.383C30.4031 149.544 30.3641 149.732 30.3641 149.945C30.3641 150.31 30.4786 150.602 30.7078 150.82C30.9422 151.034 31.2677 151.141 31.6844 151.141C32.0229 151.141 32.3354 151.055 32.6219 150.883C32.9135 150.711 33.2182 150.448 33.5359 150.094V148.602ZM43.1156 151.797C43.1156 151.839 43.1052 151.875 43.0844 151.906C43.0635 151.938 43.0271 151.964 42.975 151.984C42.9281 152.005 42.8604 152.021 42.7719 152.031C42.6833 152.042 42.5714 152.047 42.4359 152.047C42.2953 152.047 42.1781 152.042 42.0844 152.031C41.9958 152.026 41.9203 152.016 41.8578 152C41.7953 151.979 41.7432 151.953 41.7016 151.922C41.6651 151.885 41.6313 151.844 41.6 151.797L38.6313 147.906V151.805C38.6313 151.846 38.6208 151.883 38.6 151.914C38.5792 151.94 38.5453 151.964 38.4984 151.984C38.4516 152.005 38.3865 152.021 38.3031 152.031C38.2198 152.042 38.113 152.047 37.9828 152.047C37.8578 152.047 37.7536 152.042 37.6703 152.031C37.587 152.021 37.5193 152.005 37.4672 151.984C37.4203 151.964 37.3865 151.94 37.3656 151.914C37.35 151.883 37.3422 151.846 37.3422 151.805V141.367C37.3422 141.326 37.35 141.289 37.3656 141.258C37.3865 141.227 37.4203 141.201 37.4672 141.18C37.5193 141.159 37.587 141.143 37.6703 141.133C37.7536 141.122 37.8578 141.117 37.9828 141.117C38.113 141.117 38.2198 141.122 38.3031 141.133C38.3865 141.143 38.4516 141.159 38.4984 141.18C38.5453 141.201 38.5792 141.227 38.6 141.258C38.6208 141.289 38.6313 141.326 38.6313 141.367V147.727L41.2875 144.805C41.3292 144.753 41.3734 144.711 41.4203 144.68C41.4672 144.643 41.5219 144.615 41.5844 144.594C41.6521 144.568 41.7302 144.552 41.8188 144.547C41.9073 144.536 42.0141 144.531 42.1391 144.531C42.2693 144.531 42.3786 144.536 42.4672 144.547C42.5557 144.552 42.626 144.565 42.6781 144.586C42.7354 144.602 42.7745 144.625 42.7953 144.656C42.8214 144.682 42.8344 144.719 42.8344 144.766C42.8344 144.828 42.8161 144.891 42.7797 144.953C42.7484 145.016 42.6938 145.089 42.6156 145.172L40.0688 147.719L42.9281 151.43C42.9958 151.518 43.0427 151.591 43.0688 151.648C43.1 151.701 43.1156 151.75 43.1156 151.797ZM53.8453 151.812C53.8453 151.875 53.8245 151.922 53.7828 151.953C53.7411 151.984 53.6839 152.008 53.6109 152.023C53.538 152.039 53.4313 152.047 53.2906 152.047C53.1552 152.047 53.0458 152.039 52.9625 152.023C52.8844 152.008 52.8271 151.984 52.7906 151.953C52.7542 151.922 52.7359 151.875 52.7359 151.812V151.109C52.4286 151.438 52.0849 151.693 51.7047 151.875C51.3297 152.057 50.9313 152.148 50.5094 152.148C50.1396 152.148 49.8036 152.099 49.5016 152C49.2047 151.906 48.9495 151.768 48.7359 151.586C48.5276 151.404 48.3635 151.18 48.2438 150.914C48.1292 150.648 48.0719 150.346 48.0719 150.008C48.0719 149.612 48.1526 149.268 48.3141 148.977C48.4755 148.685 48.7073 148.443 49.0094 148.25C49.3115 148.057 49.6813 147.914 50.1188 147.82C50.5563 147.721 51.0484 147.672 51.5953 147.672H52.5641V147.125C52.5641 146.854 52.5354 146.615 52.4781 146.406C52.4208 146.198 52.3271 146.026 52.1969 145.891C52.0719 145.75 51.9078 145.646 51.7047 145.578C51.5016 145.505 51.2516 145.469 50.9547 145.469C50.637 145.469 50.3505 145.508 50.0953 145.586C49.8453 145.659 49.624 145.742 49.4313 145.836C49.2438 145.924 49.0849 146.008 48.9547 146.086C48.8297 146.159 48.7359 146.195 48.6734 146.195C48.6318 146.195 48.5953 146.185 48.5641 146.164C48.5328 146.143 48.5042 146.112 48.4781 146.07C48.4573 146.029 48.4417 145.977 48.4313 145.914C48.4208 145.846 48.4156 145.773 48.4156 145.695C48.4156 145.565 48.4234 145.464 48.4391 145.391C48.4599 145.312 48.5042 145.24 48.5719 145.172C48.6448 145.104 48.7672 145.026 48.9391 144.938C49.1109 144.844 49.3089 144.76 49.5328 144.688C49.7568 144.609 50.0016 144.547 50.2672 144.5C50.5328 144.448 50.801 144.422 51.0719 144.422C51.5771 144.422 52.0068 144.479 52.3609 144.594C52.7151 144.708 53.0016 144.878 53.2203 145.102C53.4391 145.32 53.5979 145.594 53.6969 145.922C53.7958 146.25 53.8453 146.633 53.8453 147.07V151.812ZM52.5641 148.602H51.4625C51.1083 148.602 50.801 148.633 50.5406 148.695C50.2802 148.753 50.0641 148.841 49.8922 148.961C49.7203 149.076 49.5927 149.216 49.5094 149.383C49.4313 149.544 49.3922 149.732 49.3922 149.945C49.3922 150.31 49.5068 150.602 49.7359 150.82C49.9703 151.034 50.2958 151.141 50.7125 151.141C51.051 151.141 51.3635 151.055 51.65 150.883C51.9417 150.711 52.2464 150.448 52.5641 150.094V148.602ZM62.3937 151.805C62.3937 151.846 62.3833 151.883 62.3625 151.914C62.3469 151.945 62.3156 151.971 62.2687 151.992C62.2271 152.008 62.1698 152.021 62.0969 152.031C62.024 152.042 61.9354 152.047 61.8312 152.047C61.7219 152.047 61.6307 152.042 61.5578 152.031C61.4849 152.021 61.425 152.008 61.3781 151.992C61.3312 151.971 61.2974 151.945 61.2766 151.914C61.2557 151.883 61.2453 151.846 61.2453 151.805V150.875C60.8755 151.276 60.4901 151.589 60.0891 151.812C59.6932 152.036 59.2583 152.148 58.7844 152.148C58.2687 152.148 57.8286 152.049 57.4641 151.852C57.0995 151.648 56.8026 151.378 56.5734 151.039C56.3495 150.695 56.1854 150.294 56.0812 149.836C55.9771 149.372 55.925 148.885 55.925 148.375C55.925 147.771 55.9901 147.227 56.1203 146.742C56.2505 146.253 56.4432 145.836 56.6984 145.492C56.9536 145.148 57.2687 144.885 57.6437 144.703C58.024 144.516 58.4615 144.422 58.9562 144.422C59.3677 144.422 59.7427 144.513 60.0812 144.695C60.425 144.872 60.7635 145.135 61.0969 145.484V141.398C61.0969 141.362 61.1047 141.328 61.1203 141.297C61.1411 141.26 61.1776 141.234 61.2297 141.219C61.2818 141.198 61.3469 141.182 61.425 141.172C61.5083 141.156 61.6125 141.148 61.7375 141.148C61.8677 141.148 61.9745 141.156 62.0578 141.172C62.1411 141.182 62.2062 141.198 62.2531 141.219C62.3 141.234 62.3339 141.26 62.3547 141.297C62.3807 141.328 62.3937 141.362 62.3937 141.398V151.805ZM61.0969 146.859C60.7479 146.427 60.4094 146.099 60.0812 145.875C59.7583 145.646 59.4198 145.531 59.0656 145.531C58.7375 145.531 58.4589 145.609 58.2297 145.766C58.0005 145.922 57.813 146.128 57.6672 146.383C57.5266 146.638 57.4224 146.927 57.3547 147.25C57.2922 147.573 57.2609 147.901 57.2609 148.234C57.2609 148.589 57.287 148.935 57.3391 149.273C57.3964 149.612 57.4927 149.914 57.6281 150.18C57.7635 150.44 57.9432 150.651 58.1672 150.812C58.3911 150.969 58.6724 151.047 59.0109 151.047C59.1828 151.047 59.3469 151.023 59.5031 150.977C59.6646 150.93 59.8286 150.852 59.9953 150.742C60.162 150.633 60.3365 150.492 60.5187 150.32C60.701 150.143 60.8937 149.927 61.0969 149.672V146.859ZM70.2234 151.812C70.2234 151.875 70.2026 151.922 70.1609 151.953C70.1193 151.984 70.062 152.008 69.9891 152.023C69.9161 152.039 69.8094 152.047 69.6688 152.047C69.5333 152.047 69.424 152.039 69.3406 152.023C69.2625 152.008 69.2052 151.984 69.1688 151.953C69.1323 151.922 69.1141 151.875 69.1141 151.812V151.109C68.8068 151.438 68.463 151.693 68.0828 151.875C67.7078 152.057 67.3094 152.148 66.8875 152.148C66.5177 152.148 66.1818 152.099 65.8797 152C65.5828 151.906 65.3276 151.768 65.1141 151.586C64.9057 151.404 64.7417 151.18 64.6219 150.914C64.5073 150.648 64.45 150.346 64.45 150.008C64.45 149.612 64.5307 149.268 64.6922 148.977C64.8536 148.685 65.0854 148.443 65.3875 148.25C65.6896 148.057 66.0594 147.914 66.4969 147.82C66.9344 147.721 67.4266 147.672 67.9734 147.672H68.9422V147.125C68.9422 146.854 68.9135 146.615 68.8563 146.406C68.799 146.198 68.7052 146.026 68.575 145.891C68.45 145.75 68.2859 145.646 68.0828 145.578C67.8797 145.505 67.6297 145.469 67.3328 145.469C67.0151 145.469 66.7286 145.508 66.4734 145.586C66.2234 145.659 66.0021 145.742 65.8094 145.836C65.6219 145.924 65.463 146.008 65.3328 146.086C65.2078 146.159 65.1141 146.195 65.0516 146.195C65.0099 146.195 64.9734 146.185 64.9422 146.164C64.9109 146.143 64.8823 146.112 64.8563 146.07C64.8354 146.029 64.8198 145.977 64.8094 145.914C64.799 145.846 64.7938 145.773 64.7938 145.695C64.7938 145.565 64.8016 145.464 64.8172 145.391C64.838 145.312 64.8823 145.24 64.95 145.172C65.0229 145.104 65.1453 145.026 65.3172 144.938C65.4891 144.844 65.687 144.76 65.9109 144.688C66.1349 144.609 66.3797 144.547 66.6453 144.5C66.9109 144.448 67.1792 144.422 67.45 144.422C67.9552 144.422 68.3849 144.479 68.7391 144.594C69.0932 144.708 69.3797 144.878 69.5984 145.102C69.8172 145.32 69.976 145.594 70.075 145.922C70.174 146.25 70.2234 146.633 70.2234 147.07V151.812ZM68.9422 148.602H67.8406C67.4865 148.602 67.1792 148.633 66.9188 148.695C66.6583 148.753 66.4422 148.841 66.2703 148.961C66.0984 149.076 65.9708 149.216 65.8875 149.383C65.8094 149.544 65.7703 149.732 65.7703 149.945C65.7703 150.31 65.8849 150.602 66.1141 150.82C66.3484 151.034 66.674 151.141 67.0906 151.141C67.4292 151.141 67.7417 151.055 68.0281 150.883C68.3198 150.711 68.6245 150.448 68.9422 150.094V148.602ZM82.5781 151.805C82.5781 151.846 82.5677 151.883 82.5469 151.914C82.526 151.94 82.4922 151.964 82.4453 151.984C82.3984 152.005 82.3333 152.021 82.25 152.031C82.1667 152.042 82.0625 152.047 81.9375 152.047C81.8073 152.047 81.7005 152.042 81.6172 152.031C81.5339 152.021 81.4688 152.005 81.4219 151.984C81.375 151.964 81.3411 151.94 81.3203 151.914C81.2995 151.883 81.2891 151.846 81.2891 151.805V147.688C81.2891 147.286 81.2578 146.964 81.1953 146.719C81.1328 146.474 81.0417 146.263 80.9219 146.086C80.8021 145.909 80.6458 145.773 80.4531 145.68C80.2656 145.586 80.0469 145.539 79.7969 145.539C79.474 145.539 79.151 145.654 78.8281 145.883C78.5052 146.112 78.1667 146.448 77.8125 146.891V151.805C77.8125 151.846 77.8021 151.883 77.7812 151.914C77.7604 151.94 77.7266 151.964 77.6797 151.984C77.6328 152.005 77.5677 152.021 77.4844 152.031C77.401 152.042 77.2943 152.047 77.1641 152.047C77.0391 152.047 76.9349 152.042 76.8516 152.031C76.7682 152.021 76.7005 152.005 76.6484 151.984C76.6016 151.964 76.5677 151.94 76.5469 151.914C76.5312 151.883 76.5234 151.846 76.5234 151.805V141.367C76.5234 141.326 76.5312 141.289 76.5469 141.258C76.5677 141.227 76.6016 141.201 76.6484 141.18C76.7005 141.159 76.7682 141.143 76.8516 141.133C76.9349 141.122 77.0391 141.117 77.1641 141.117C77.2943 141.117 77.401 141.122 77.4844 141.133C77.5677 141.143 77.6328 141.159 77.6797 141.18C77.7266 141.201 77.7604 141.227 77.7812 141.258C77.8021 141.289 77.8125 141.326 77.8125 141.367V145.578C78.1823 145.188 78.5547 144.898 78.9297 144.711C79.3047 144.518 79.6823 144.422 80.0625 144.422C80.5312 144.422 80.9245 144.503 81.2422 144.664C81.5651 144.82 81.8255 145.031 82.0234 145.297C82.2214 145.562 82.362 145.875 82.4453 146.234C82.5339 146.589 82.5781 147.018 82.5781 147.523V151.805ZM86.3688 151.805C86.3688 151.846 86.3583 151.883 86.3375 151.914C86.3167 151.94 86.2828 151.964 86.2359 151.984C86.1891 152.005 86.124 152.021 86.0406 152.031C85.9573 152.042 85.8505 152.047 85.7203 152.047C85.5953 152.047 85.4911 152.042 85.4078 152.031C85.3245 152.021 85.2568 152.005 85.2047 151.984C85.1578 151.964 85.124 151.94 85.1031 151.914C85.0875 151.883 85.0797 151.846 85.0797 151.805V144.773C85.0797 144.737 85.0875 144.703 85.1031 144.672C85.124 144.641 85.1578 144.615 85.2047 144.594C85.2568 144.573 85.3245 144.557 85.4078 144.547C85.4911 144.536 85.5953 144.531 85.7203 144.531C85.8505 144.531 85.9573 144.536 86.0406 144.547C86.124 144.557 86.1891 144.573 86.2359 144.594C86.2828 144.615 86.3167 144.641 86.3375 144.672C86.3583 144.703 86.3688 144.737 86.3688 144.773V151.805ZM86.5172 142.398C86.5172 142.701 86.4599 142.906 86.3453 143.016C86.2307 143.125 86.0198 143.18 85.7125 143.18C85.4104 143.18 85.2021 143.128 85.0875 143.023C84.9781 142.914 84.9234 142.711 84.9234 142.414C84.9234 142.112 84.9807 141.906 85.0953 141.797C85.2099 141.688 85.4208 141.633 85.7281 141.633C86.0302 141.633 86.2359 141.688 86.3453 141.797C86.4599 141.901 86.5172 142.102 86.5172 142.398ZM93.3156 149.891C93.3156 150.25 93.2479 150.57 93.1125 150.852C92.9823 151.133 92.7948 151.37 92.55 151.562C92.3052 151.755 92.0135 151.901 91.675 152C91.3365 152.099 90.9641 152.148 90.5578 152.148C90.3078 152.148 90.0682 152.128 89.8391 152.086C89.6151 152.049 89.412 152.003 89.2297 151.945C89.0526 151.883 88.9016 151.82 88.7766 151.758C88.6516 151.69 88.5604 151.63 88.5031 151.578C88.4458 151.526 88.4042 151.453 88.3781 151.359C88.3521 151.266 88.3391 151.138 88.3391 150.977C88.3391 150.878 88.3443 150.794 88.3547 150.727C88.3651 150.659 88.3781 150.604 88.3938 150.562C88.4094 150.521 88.4302 150.492 88.4563 150.477C88.4875 150.456 88.5214 150.445 88.5578 150.445C88.6151 150.445 88.6984 150.482 88.8078 150.555C88.9224 150.622 89.0604 150.698 89.2219 150.781C89.3885 150.865 89.5839 150.943 89.8078 151.016C90.0318 151.083 90.2896 151.117 90.5813 151.117C90.8 151.117 90.9979 151.094 91.175 151.047C91.3521 151 91.5057 150.932 91.6359 150.844C91.7661 150.75 91.8651 150.633 91.9328 150.492C92.0057 150.352 92.0422 150.185 92.0422 149.992C92.0422 149.794 91.9901 149.628 91.8859 149.492C91.787 149.357 91.6542 149.237 91.4875 149.133C91.3208 149.029 91.1333 148.938 90.925 148.859C90.7167 148.776 90.5005 148.69 90.2766 148.602C90.0578 148.513 89.8417 148.414 89.6281 148.305C89.4198 148.19 89.2323 148.052 89.0656 147.891C88.899 147.729 88.7635 147.536 88.6594 147.312C88.5604 147.089 88.5109 146.82 88.5109 146.508C88.5109 146.232 88.563 145.969 88.6672 145.719C88.7766 145.464 88.938 145.242 89.1516 145.055C89.3651 144.862 89.6307 144.708 89.9484 144.594C90.2714 144.479 90.6464 144.422 91.0734 144.422C91.2609 144.422 91.4484 144.438 91.6359 144.469C91.8234 144.5 91.9927 144.539 92.1438 144.586C92.2948 144.633 92.4224 144.685 92.5266 144.742C92.6359 144.794 92.7167 144.841 92.7688 144.883C92.826 144.924 92.8625 144.961 92.8781 144.992C92.899 145.023 92.912 145.06 92.9172 145.102C92.9276 145.138 92.9354 145.185 92.9406 145.242C92.951 145.299 92.9563 145.37 92.9563 145.453C92.9563 145.542 92.951 145.62 92.9406 145.688C92.9354 145.75 92.9224 145.802 92.9016 145.844C92.8859 145.885 92.8651 145.917 92.8391 145.938C92.813 145.953 92.7844 145.961 92.7531 145.961C92.7063 145.961 92.6385 145.932 92.55 145.875C92.4615 145.818 92.3469 145.758 92.2063 145.695C92.0656 145.628 91.899 145.565 91.7063 145.508C91.5188 145.451 91.3026 145.422 91.0578 145.422C90.8391 145.422 90.6464 145.448 90.4797 145.5C90.313 145.547 90.175 145.617 90.0656 145.711C89.9615 145.799 89.8807 145.906 89.8234 146.031C89.7714 146.156 89.7453 146.292 89.7453 146.438C89.7453 146.641 89.7974 146.812 89.9016 146.953C90.0057 147.089 90.1411 147.208 90.3078 147.312C90.4745 147.417 90.6646 147.51 90.8781 147.594C91.0917 147.677 91.3078 147.763 91.5266 147.852C91.7505 147.94 91.9693 148.039 92.1828 148.148C92.4016 148.258 92.5943 148.391 92.7609 148.547C92.9276 148.703 93.0604 148.891 93.1594 149.109C93.2635 149.328 93.3156 149.589 93.3156 149.891ZM98.7859 151.289C98.7859 151.44 98.7755 151.56 98.7547 151.648C98.7339 151.737 98.7026 151.802 98.6609 151.844C98.6193 151.885 98.5568 151.924 98.4734 151.961C98.3901 151.997 98.2937 152.026 98.1844 152.047C98.0802 152.073 97.9682 152.094 97.8484 152.109C97.7286 152.125 97.6089 152.133 97.4891 152.133C97.1245 152.133 96.812 152.086 96.5516 151.992C96.2911 151.893 96.0776 151.747 95.9109 151.555C95.7443 151.357 95.6219 151.109 95.5437 150.812C95.4708 150.51 95.4344 150.156 95.4344 149.75V145.641H94.45C94.3719 145.641 94.3094 145.599 94.2625 145.516C94.2156 145.432 94.1922 145.297 94.1922 145.109C94.1922 145.01 94.1974 144.927 94.2078 144.859C94.2234 144.792 94.2417 144.737 94.2625 144.695C94.2833 144.648 94.3094 144.617 94.3406 144.602C94.3771 144.581 94.4161 144.57 94.4578 144.57H95.4344V142.898C95.4344 142.862 95.4422 142.828 95.4578 142.797C95.4786 142.766 95.5125 142.74 95.5594 142.719C95.6115 142.693 95.6792 142.674 95.7625 142.664C95.8458 142.654 95.95 142.648 96.075 142.648C96.2052 142.648 96.312 142.654 96.3953 142.664C96.4786 142.674 96.5437 142.693 96.5906 142.719C96.6375 142.74 96.6714 142.766 96.6922 142.797C96.713 142.828 96.7234 142.862 96.7234 142.898V144.57H98.5281C98.5698 144.57 98.6062 144.581 98.6375 144.602C98.6687 144.617 98.6948 144.648 98.7156 144.695C98.7417 144.737 98.7599 144.792 98.7703 144.859C98.7807 144.927 98.7859 145.01 98.7859 145.109C98.7859 145.297 98.7625 145.432 98.7156 145.516C98.6687 145.599 98.6062 145.641 98.5281 145.641H96.7234V149.562C96.7234 150.047 96.7937 150.414 96.9344 150.664C97.0802 150.909 97.338 151.031 97.7078 151.031C97.8276 151.031 97.9344 151.021 98.0281 151C98.1219 150.974 98.2052 150.948 98.2781 150.922C98.351 150.896 98.4135 150.872 98.4656 150.852C98.5177 150.826 98.5646 150.812 98.6062 150.812C98.6323 150.812 98.6557 150.82 98.6766 150.836C98.7026 150.846 98.7208 150.87 98.7312 150.906C98.7469 150.943 98.7599 150.992 98.7703 151.055C98.7807 151.117 98.7859 151.195 98.7859 151.289ZM107.022 148.211C107.022 148.784 106.946 149.312 106.795 149.797C106.644 150.276 106.418 150.69 106.116 151.039C105.819 151.388 105.444 151.661 104.991 151.859C104.543 152.052 104.022 152.148 103.428 152.148C102.85 152.148 102.345 152.062 101.912 151.891C101.485 151.719 101.129 151.469 100.842 151.141C100.556 150.812 100.342 150.414 100.202 149.945C100.061 149.477 99.9906 148.945 99.9906 148.352C99.9906 147.779 100.064 147.253 100.209 146.773C100.36 146.289 100.584 145.872 100.881 145.523C101.183 145.174 101.558 144.904 102.006 144.711C102.454 144.518 102.978 144.422 103.577 144.422C104.155 144.422 104.657 144.508 105.084 144.68C105.517 144.852 105.876 145.102 106.162 145.43C106.449 145.758 106.662 146.156 106.803 146.625C106.949 147.094 107.022 147.622 107.022 148.211ZM105.662 148.297C105.662 147.917 105.626 147.557 105.553 147.219C105.485 146.88 105.371 146.583 105.209 146.328C105.048 146.073 104.829 145.872 104.553 145.727C104.277 145.576 103.933 145.5 103.522 145.5C103.142 145.5 102.814 145.568 102.537 145.703C102.267 145.839 102.043 146.031 101.866 146.281C101.689 146.526 101.556 146.818 101.467 147.156C101.384 147.495 101.342 147.865 101.342 148.266C101.342 148.651 101.376 149.013 101.444 149.352C101.517 149.69 101.634 149.987 101.795 150.242C101.962 150.492 102.183 150.693 102.459 150.844C102.735 150.99 103.079 151.062 103.491 151.062C103.866 151.062 104.191 150.995 104.467 150.859C104.743 150.724 104.97 150.534 105.147 150.289C105.324 150.044 105.454 149.753 105.537 149.414C105.621 149.076 105.662 148.703 105.662 148.297ZM113.18 145.234C113.18 145.349 113.177 145.445 113.172 145.523C113.167 145.602 113.156 145.664 113.141 145.711C113.125 145.753 113.104 145.786 113.078 145.812C113.057 145.833 113.026 145.844 112.984 145.844C112.943 145.844 112.891 145.833 112.828 145.812C112.771 145.786 112.703 145.763 112.625 145.742C112.552 145.716 112.469 145.693 112.375 145.672C112.281 145.651 112.18 145.641 112.07 145.641C111.94 145.641 111.812 145.667 111.688 145.719C111.562 145.771 111.43 145.857 111.289 145.977C111.154 146.096 111.01 146.255 110.859 146.453C110.708 146.651 110.542 146.893 110.359 147.18V151.805C110.359 151.846 110.349 151.883 110.328 151.914C110.307 151.94 110.273 151.964 110.227 151.984C110.18 152.005 110.115 152.021 110.031 152.031C109.948 152.042 109.841 152.047 109.711 152.047C109.586 152.047 109.482 152.042 109.398 152.031C109.315 152.021 109.247 152.005 109.195 151.984C109.148 151.964 109.115 151.94 109.094 151.914C109.078 151.883 109.07 151.846 109.07 151.805V144.773C109.07 144.732 109.078 144.698 109.094 144.672C109.109 144.641 109.141 144.615 109.188 144.594C109.234 144.568 109.294 144.552 109.367 144.547C109.44 144.536 109.536 144.531 109.656 144.531C109.771 144.531 109.865 144.536 109.938 144.547C110.016 144.552 110.076 144.568 110.117 144.594C110.159 144.615 110.188 144.641 110.203 144.672C110.224 144.698 110.234 144.732 110.234 144.773V145.797C110.427 145.516 110.607 145.286 110.773 145.109C110.945 144.932 111.107 144.794 111.258 144.695C111.409 144.591 111.557 144.521 111.703 144.484C111.854 144.443 112.005 144.422 112.156 144.422C112.224 144.422 112.299 144.427 112.383 144.438C112.471 144.443 112.562 144.456 112.656 144.477C112.75 144.497 112.833 144.521 112.906 144.547C112.984 144.573 113.039 144.599 113.07 144.625C113.102 144.651 113.122 144.677 113.133 144.703C113.143 144.724 113.151 144.753 113.156 144.789C113.167 144.826 113.172 144.88 113.172 144.953C113.177 145.021 113.18 145.115 113.18 145.234ZM118.08 152L117.142 154.586C117.111 154.669 117.03 154.732 116.9 154.773C116.775 154.82 116.582 154.844 116.322 154.844C116.186 154.844 116.077 154.836 115.994 154.82C115.91 154.81 115.845 154.789 115.798 154.758C115.757 154.727 115.733 154.685 115.728 154.633C115.723 154.581 115.736 154.518 115.767 154.445L116.736 152C116.689 151.979 116.645 151.945 116.603 151.898C116.561 151.852 116.533 151.802 116.517 151.75L114.009 145.031C113.968 144.922 113.947 144.836 113.947 144.773C113.947 144.711 113.968 144.661 114.009 144.625C114.051 144.589 114.119 144.565 114.213 144.555C114.306 144.539 114.431 144.531 114.588 144.531C114.744 144.531 114.866 144.536 114.955 144.547C115.043 144.552 115.114 144.565 115.166 144.586C115.218 144.607 115.254 144.638 115.275 144.68C115.301 144.716 115.327 144.768 115.353 144.836L117.361 150.477H117.384L119.322 144.805C119.353 144.706 119.39 144.643 119.431 144.617C119.478 144.586 119.546 144.565 119.634 144.555C119.723 144.539 119.851 144.531 120.017 144.531C120.163 144.531 120.283 144.539 120.377 144.555C120.47 144.565 120.538 144.589 120.58 144.625C120.627 144.661 120.65 144.711 120.65 144.773C120.65 144.836 120.634 144.914 120.603 145.008L118.08 152ZM129.708 151.289C129.708 151.44 129.697 151.56 129.677 151.648C129.656 151.737 129.624 151.802 129.583 151.844C129.541 151.885 129.479 151.924 129.395 151.961C129.312 151.997 129.216 152.026 129.106 152.047C129.002 152.073 128.89 152.094 128.77 152.109C128.651 152.125 128.531 152.133 128.411 152.133C128.046 152.133 127.734 152.086 127.473 151.992C127.213 151.893 126.999 151.747 126.833 151.555C126.666 151.357 126.544 151.109 126.466 150.812C126.393 150.51 126.356 150.156 126.356 149.75V145.641H125.372C125.294 145.641 125.231 145.599 125.184 145.516C125.137 145.432 125.114 145.297 125.114 145.109C125.114 145.01 125.119 144.927 125.13 144.859C125.145 144.792 125.164 144.737 125.184 144.695C125.205 144.648 125.231 144.617 125.262 144.602C125.299 144.581 125.338 144.57 125.38 144.57H126.356V142.898C126.356 142.862 126.364 142.828 126.38 142.797C126.401 142.766 126.434 142.74 126.481 142.719C126.533 142.693 126.601 142.674 126.684 142.664C126.768 142.654 126.872 142.648 126.997 142.648C127.127 142.648 127.234 142.654 127.317 142.664C127.401 142.674 127.466 142.693 127.512 142.719C127.559 142.74 127.593 142.766 127.614 142.797C127.635 142.828 127.645 142.862 127.645 142.898V144.57H129.45C129.492 144.57 129.528 144.581 129.559 144.602C129.591 144.617 129.617 144.648 129.637 144.695C129.664 144.737 129.682 144.792 129.692 144.859C129.703 144.927 129.708 145.01 129.708 145.109C129.708 145.297 129.684 145.432 129.637 145.516C129.591 145.599 129.528 145.641 129.45 145.641H127.645V149.562C127.645 150.047 127.716 150.414 127.856 150.664C128.002 150.909 128.26 151.031 128.63 151.031C128.749 151.031 128.856 151.021 128.95 151C129.044 150.974 129.127 150.948 129.2 150.922C129.273 150.896 129.335 150.872 129.387 150.852C129.44 150.826 129.486 150.812 129.528 150.812C129.554 150.812 129.578 150.82 129.598 150.836C129.624 150.846 129.643 150.87 129.653 150.906C129.669 150.943 129.682 150.992 129.692 151.055C129.703 151.117 129.708 151.195 129.708 151.289ZM135.67 145.234C135.67 145.349 135.668 145.445 135.662 145.523C135.657 145.602 135.647 145.664 135.631 145.711C135.616 145.753 135.595 145.786 135.569 145.812C135.548 145.833 135.517 145.844 135.475 145.844C135.433 145.844 135.381 145.833 135.319 145.812C135.261 145.786 135.194 145.763 135.116 145.742C135.043 145.716 134.959 145.693 134.866 145.672C134.772 145.651 134.67 145.641 134.561 145.641C134.431 145.641 134.303 145.667 134.178 145.719C134.053 145.771 133.92 145.857 133.78 145.977C133.644 146.096 133.501 146.255 133.35 146.453C133.199 146.651 133.032 146.893 132.85 147.18V151.805C132.85 151.846 132.84 151.883 132.819 151.914C132.798 151.94 132.764 151.964 132.717 151.984C132.67 152.005 132.605 152.021 132.522 152.031C132.439 152.042 132.332 152.047 132.202 152.047C132.077 152.047 131.972 152.042 131.889 152.031C131.806 152.021 131.738 152.005 131.686 151.984C131.639 151.964 131.605 151.94 131.584 151.914C131.569 151.883 131.561 151.846 131.561 151.805V144.773C131.561 144.732 131.569 144.698 131.584 144.672C131.6 144.641 131.631 144.615 131.678 144.594C131.725 144.568 131.785 144.552 131.858 144.547C131.931 144.536 132.027 144.531 132.147 144.531C132.261 144.531 132.355 144.536 132.428 144.547C132.506 144.552 132.566 144.568 132.608 144.594C132.649 144.615 132.678 144.641 132.694 144.672C132.715 144.698 132.725 144.732 132.725 144.773V145.797C132.918 145.516 133.097 145.286 133.264 145.109C133.436 144.932 133.597 144.794 133.748 144.695C133.899 144.591 134.048 144.521 134.194 144.484C134.345 144.443 134.496 144.422 134.647 144.422C134.715 144.422 134.79 144.427 134.873 144.438C134.962 144.443 135.053 144.456 135.147 144.477C135.241 144.497 135.324 144.521 135.397 144.547C135.475 144.573 135.53 144.599 135.561 144.625C135.592 144.651 135.613 144.677 135.623 144.703C135.634 144.724 135.642 144.753 135.647 144.789C135.657 144.826 135.662 144.88 135.662 144.953C135.668 145.021 135.67 145.115 135.67 145.234ZM142.258 151.812C142.258 151.875 142.237 151.922 142.195 151.953C142.154 151.984 142.096 152.008 142.023 152.023C141.951 152.039 141.844 152.047 141.703 152.047C141.568 152.047 141.458 152.039 141.375 152.023C141.297 152.008 141.24 151.984 141.203 151.953C141.167 151.922 141.148 151.875 141.148 151.812V151.109C140.841 151.438 140.497 151.693 140.117 151.875C139.742 152.057 139.344 152.148 138.922 152.148C138.552 152.148 138.216 152.099 137.914 152C137.617 151.906 137.362 151.768 137.148 151.586C136.94 151.404 136.776 151.18 136.656 150.914C136.542 150.648 136.484 150.346 136.484 150.008C136.484 149.612 136.565 149.268 136.727 148.977C136.888 148.685 137.12 148.443 137.422 148.25C137.724 148.057 138.094 147.914 138.531 147.82C138.969 147.721 139.461 147.672 140.008 147.672H140.977V147.125C140.977 146.854 140.948 146.615 140.891 146.406C140.833 146.198 140.74 146.026 140.609 145.891C140.484 145.75 140.32 145.646 140.117 145.578C139.914 145.505 139.664 145.469 139.367 145.469C139.049 145.469 138.763 145.508 138.508 145.586C138.258 145.659 138.036 145.742 137.844 145.836C137.656 145.924 137.497 146.008 137.367 146.086C137.242 146.159 137.148 146.195 137.086 146.195C137.044 146.195 137.008 146.185 136.977 146.164C136.945 146.143 136.917 146.112 136.891 146.07C136.87 146.029 136.854 145.977 136.844 145.914C136.833 145.846 136.828 145.773 136.828 145.695C136.828 145.565 136.836 145.464 136.852 145.391C136.872 145.312 136.917 145.24 136.984 145.172C137.057 145.104 137.18 145.026 137.352 144.938C137.523 144.844 137.721 144.76 137.945 144.688C138.169 144.609 138.414 144.547 138.68 144.5C138.945 144.448 139.214 144.422 139.484 144.422C139.99 144.422 140.419 144.479 140.773 144.594C141.128 144.708 141.414 144.878 141.633 145.102C141.852 145.32 142.01 145.594 142.109 145.922C142.208 146.25 142.258 146.633 142.258 147.07V151.812ZM140.977 148.602H139.875C139.521 148.602 139.214 148.633 138.953 148.695C138.693 148.753 138.477 148.841 138.305 148.961C138.133 149.076 138.005 149.216 137.922 149.383C137.844 149.544 137.805 149.732 137.805 149.945C137.805 150.31 137.919 150.602 138.148 150.82C138.383 151.034 138.708 151.141 139.125 151.141C139.464 151.141 139.776 151.055 140.062 150.883C140.354 150.711 140.659 150.448 140.977 150.094V148.602ZM150.837 151.805C150.837 151.846 150.827 151.883 150.806 151.914C150.785 151.94 150.752 151.964 150.705 151.984C150.658 152.005 150.593 152.021 150.509 152.031C150.426 152.042 150.322 152.047 150.197 152.047C150.067 152.047 149.96 152.042 149.877 152.031C149.793 152.021 149.728 152.005 149.681 151.984C149.634 151.964 149.601 151.94 149.58 151.914C149.559 151.883 149.548 151.846 149.548 151.805V147.688C149.548 147.286 149.517 146.964 149.455 146.719C149.392 146.474 149.301 146.263 149.181 146.086C149.061 145.909 148.905 145.773 148.712 145.68C148.525 145.586 148.306 145.539 148.056 145.539C147.733 145.539 147.41 145.654 147.087 145.883C146.765 146.112 146.426 146.448 146.072 146.891V151.805C146.072 151.846 146.061 151.883 146.041 151.914C146.02 151.94 145.986 151.964 145.939 151.984C145.892 152.005 145.827 152.021 145.744 152.031C145.66 152.042 145.554 152.047 145.423 152.047C145.298 152.047 145.194 152.042 145.111 152.031C145.028 152.021 144.96 152.005 144.908 151.984C144.861 151.964 144.827 151.94 144.806 151.914C144.791 151.883 144.783 151.846 144.783 151.805V144.773C144.783 144.732 144.791 144.698 144.806 144.672C144.822 144.641 144.853 144.615 144.9 144.594C144.947 144.568 145.007 144.552 145.08 144.547C145.153 144.536 145.249 144.531 145.369 144.531C145.483 144.531 145.577 144.536 145.65 144.547C145.728 144.552 145.788 144.568 145.83 144.594C145.871 144.615 145.9 144.641 145.916 144.672C145.936 144.698 145.947 144.732 145.947 144.773V145.703C146.343 145.26 146.736 144.938 147.127 144.734C147.522 144.526 147.921 144.422 148.322 144.422C148.791 144.422 149.184 144.503 149.502 144.664C149.824 144.82 150.085 145.031 150.283 145.297C150.481 145.562 150.621 145.875 150.705 146.234C150.793 146.589 150.837 147.016 150.837 147.516V151.805ZM157.753 149.891C157.753 150.25 157.685 150.57 157.55 150.852C157.42 151.133 157.232 151.37 156.988 151.562C156.743 151.755 156.451 151.901 156.113 152C155.774 152.099 155.402 152.148 154.995 152.148C154.745 152.148 154.506 152.128 154.277 152.086C154.053 152.049 153.849 152.003 153.667 151.945C153.49 151.883 153.339 151.82 153.214 151.758C153.089 151.69 152.998 151.63 152.941 151.578C152.883 151.526 152.842 151.453 152.816 151.359C152.79 151.266 152.777 151.138 152.777 150.977C152.777 150.878 152.782 150.794 152.792 150.727C152.803 150.659 152.816 150.604 152.831 150.562C152.847 150.521 152.868 150.492 152.894 150.477C152.925 150.456 152.959 150.445 152.995 150.445C153.053 150.445 153.136 150.482 153.245 150.555C153.36 150.622 153.498 150.698 153.659 150.781C153.826 150.865 154.021 150.943 154.245 151.016C154.469 151.083 154.727 151.117 155.019 151.117C155.238 151.117 155.435 151.094 155.613 151.047C155.79 151 155.943 150.932 156.073 150.844C156.204 150.75 156.303 150.633 156.37 150.492C156.443 150.352 156.48 150.185 156.48 149.992C156.48 149.794 156.428 149.628 156.323 149.492C156.224 149.357 156.092 149.237 155.925 149.133C155.758 149.029 155.571 148.938 155.363 148.859C155.154 148.776 154.938 148.69 154.714 148.602C154.495 148.513 154.279 148.414 154.066 148.305C153.857 148.19 153.67 148.052 153.503 147.891C153.336 147.729 153.201 147.536 153.097 147.312C152.998 147.089 152.948 146.82 152.948 146.508C152.948 146.232 153.001 145.969 153.105 145.719C153.214 145.464 153.376 145.242 153.589 145.055C153.803 144.862 154.068 144.708 154.386 144.594C154.709 144.479 155.084 144.422 155.511 144.422C155.698 144.422 155.886 144.438 156.073 144.469C156.261 144.5 156.43 144.539 156.581 144.586C156.732 144.633 156.86 144.685 156.964 144.742C157.073 144.794 157.154 144.841 157.206 144.883C157.264 144.924 157.3 144.961 157.316 144.992C157.336 145.023 157.349 145.06 157.355 145.102C157.365 145.138 157.373 145.185 157.378 145.242C157.389 145.299 157.394 145.37 157.394 145.453C157.394 145.542 157.389 145.62 157.378 145.688C157.373 145.75 157.36 145.802 157.339 145.844C157.323 145.885 157.303 145.917 157.277 145.938C157.251 145.953 157.222 145.961 157.191 145.961C157.144 145.961 157.076 145.932 156.988 145.875C156.899 145.818 156.784 145.758 156.644 145.695C156.503 145.628 156.336 145.565 156.144 145.508C155.956 145.451 155.74 145.422 155.495 145.422C155.277 145.422 155.084 145.448 154.917 145.5C154.751 145.547 154.613 145.617 154.503 145.711C154.399 145.799 154.318 145.906 154.261 146.031C154.209 146.156 154.183 146.292 154.183 146.438C154.183 146.641 154.235 146.812 154.339 146.953C154.443 147.089 154.579 147.208 154.745 147.312C154.912 147.417 155.102 147.51 155.316 147.594C155.529 147.677 155.745 147.763 155.964 147.852C156.188 147.94 156.407 148.039 156.62 148.148C156.839 148.258 157.032 148.391 157.198 148.547C157.365 148.703 157.498 148.891 157.597 149.109C157.701 149.328 157.753 149.589 157.753 149.891ZM165.052 151.812C165.052 151.875 165.031 151.922 164.989 151.953C164.947 151.984 164.89 152.008 164.817 152.023C164.744 152.039 164.637 152.047 164.497 152.047C164.361 152.047 164.252 152.039 164.169 152.023C164.091 152.008 164.033 151.984 163.997 151.953C163.96 151.922 163.942 151.875 163.942 151.812V151.109C163.635 151.438 163.291 151.693 162.911 151.875C162.536 152.057 162.137 152.148 161.716 152.148C161.346 152.148 161.01 152.099 160.708 152C160.411 151.906 160.156 151.768 159.942 151.586C159.734 151.404 159.57 151.18 159.45 150.914C159.335 150.648 159.278 150.346 159.278 150.008C159.278 149.612 159.359 149.268 159.52 148.977C159.682 148.685 159.914 148.443 160.216 148.25C160.518 148.057 160.887 147.914 161.325 147.82C161.762 147.721 162.255 147.672 162.802 147.672H163.77V147.125C163.77 146.854 163.742 146.615 163.684 146.406C163.627 146.198 163.533 146.026 163.403 145.891C163.278 145.75 163.114 145.646 162.911 145.578C162.708 145.505 162.458 145.469 162.161 145.469C161.843 145.469 161.557 145.508 161.302 145.586C161.052 145.659 160.83 145.742 160.637 145.836C160.45 145.924 160.291 146.008 160.161 146.086C160.036 146.159 159.942 146.195 159.88 146.195C159.838 146.195 159.802 146.185 159.77 146.164C159.739 146.143 159.71 146.112 159.684 146.07C159.664 146.029 159.648 145.977 159.637 145.914C159.627 145.846 159.622 145.773 159.622 145.695C159.622 145.565 159.63 145.464 159.645 145.391C159.666 145.312 159.71 145.24 159.778 145.172C159.851 145.104 159.973 145.026 160.145 144.938C160.317 144.844 160.515 144.76 160.739 144.688C160.963 144.609 161.208 144.547 161.473 144.5C161.739 144.448 162.007 144.422 162.278 144.422C162.783 144.422 163.213 144.479 163.567 144.594C163.921 144.708 164.208 144.878 164.427 145.102C164.645 145.32 164.804 145.594 164.903 145.922C165.002 146.25 165.052 146.633 165.052 147.07V151.812ZM163.77 148.602H162.669C162.315 148.602 162.007 148.633 161.747 148.695C161.486 148.753 161.27 148.841 161.098 148.961C160.927 149.076 160.799 149.216 160.716 149.383C160.637 149.544 160.598 149.732 160.598 149.945C160.598 150.31 160.713 150.602 160.942 150.82C161.177 151.034 161.502 151.141 161.919 151.141C162.257 151.141 162.57 151.055 162.856 150.883C163.148 150.711 163.453 150.448 163.77 150.094V148.602ZM173.35 151.797C173.35 151.839 173.34 151.875 173.319 151.906C173.298 151.938 173.261 151.964 173.209 151.984C173.163 152.005 173.095 152.021 173.006 152.031C172.918 152.042 172.806 152.047 172.67 152.047C172.53 152.047 172.413 152.042 172.319 152.031C172.23 152.026 172.155 152.016 172.092 152C172.03 151.979 171.978 151.953 171.936 151.922C171.899 151.885 171.866 151.844 171.834 151.797L168.866 147.906V151.805C168.866 151.846 168.855 151.883 168.834 151.914C168.814 151.94 168.78 151.964 168.733 151.984C168.686 152.005 168.621 152.021 168.538 152.031C168.454 152.042 168.347 152.047 168.217 152.047C168.092 152.047 167.988 152.042 167.905 152.031C167.821 152.021 167.754 152.005 167.702 151.984C167.655 151.964 167.621 151.94 167.6 151.914C167.584 151.883 167.577 151.846 167.577 151.805V141.367C167.577 141.326 167.584 141.289 167.6 141.258C167.621 141.227 167.655 141.201 167.702 141.18C167.754 141.159 167.821 141.143 167.905 141.133C167.988 141.122 168.092 141.117 168.217 141.117C168.347 141.117 168.454 141.122 168.538 141.133C168.621 141.143 168.686 141.159 168.733 141.18C168.78 141.201 168.814 141.227 168.834 141.258C168.855 141.289 168.866 141.326 168.866 141.367V147.727L171.522 144.805C171.564 144.753 171.608 144.711 171.655 144.68C171.702 144.643 171.756 144.615 171.819 144.594C171.886 144.568 171.965 144.552 172.053 144.547C172.142 144.536 172.248 144.531 172.373 144.531C172.504 144.531 172.613 144.536 172.702 144.547C172.79 144.552 172.86 144.565 172.913 144.586C172.97 144.602 173.009 144.625 173.03 144.656C173.056 144.682 173.069 144.719 173.069 144.766C173.069 144.828 173.051 144.891 173.014 144.953C172.983 145.016 172.928 145.089 172.85 145.172L170.303 147.719L173.163 151.43C173.23 151.518 173.277 151.591 173.303 151.648C173.334 151.701 173.35 151.75 173.35 151.797ZM179.266 149.891C179.266 150.25 179.198 150.57 179.062 150.852C178.932 151.133 178.745 151.37 178.5 151.562C178.255 151.755 177.964 151.901 177.625 152C177.286 152.099 176.914 152.148 176.508 152.148C176.258 152.148 176.018 152.128 175.789 152.086C175.565 152.049 175.362 152.003 175.18 151.945C175.003 151.883 174.852 151.82 174.727 151.758C174.602 151.69 174.51 151.63 174.453 151.578C174.396 151.526 174.354 151.453 174.328 151.359C174.302 151.266 174.289 151.138 174.289 150.977C174.289 150.878 174.294 150.794 174.305 150.727C174.315 150.659 174.328 150.604 174.344 150.562C174.359 150.521 174.38 150.492 174.406 150.477C174.438 150.456 174.471 150.445 174.508 150.445C174.565 150.445 174.648 150.482 174.758 150.555C174.872 150.622 175.01 150.698 175.172 150.781C175.339 150.865 175.534 150.943 175.758 151.016C175.982 151.083 176.24 151.117 176.531 151.117C176.75 151.117 176.948 151.094 177.125 151.047C177.302 151 177.456 150.932 177.586 150.844C177.716 150.75 177.815 150.633 177.883 150.492C177.956 150.352 177.992 150.185 177.992 149.992C177.992 149.794 177.94 149.628 177.836 149.492C177.737 149.357 177.604 149.237 177.438 149.133C177.271 149.029 177.083 148.938 176.875 148.859C176.667 148.776 176.451 148.69 176.227 148.602C176.008 148.513 175.792 148.414 175.578 148.305C175.37 148.19 175.182 148.052 175.016 147.891C174.849 147.729 174.714 147.536 174.609 147.312C174.51 147.089 174.461 146.82 174.461 146.508C174.461 146.232 174.513 145.969 174.617 145.719C174.727 145.464 174.888 145.242 175.102 145.055C175.315 144.862 175.581 144.708 175.898 144.594C176.221 144.479 176.596 144.422 177.023 144.422C177.211 144.422 177.398 144.438 177.586 144.469C177.773 144.5 177.943 144.539 178.094 144.586C178.245 144.633 178.372 144.685 178.477 144.742C178.586 144.794 178.667 144.841 178.719 144.883C178.776 144.924 178.812 144.961 178.828 144.992C178.849 145.023 178.862 145.06 178.867 145.102C178.878 145.138 178.885 145.185 178.891 145.242C178.901 145.299 178.906 145.37 178.906 145.453C178.906 145.542 178.901 145.62 178.891 145.688C178.885 145.75 178.872 145.802 178.852 145.844C178.836 145.885 178.815 145.917 178.789 145.938C178.763 145.953 178.734 145.961 178.703 145.961C178.656 145.961 178.589 145.932 178.5 145.875C178.411 145.818 178.297 145.758 178.156 145.695C178.016 145.628 177.849 145.565 177.656 145.508C177.469 145.451 177.253 145.422 177.008 145.422C176.789 145.422 176.596 145.448 176.43 145.5C176.263 145.547 176.125 145.617 176.016 145.711C175.911 145.799 175.831 145.906 175.773 146.031C175.721 146.156 175.695 146.292 175.695 146.438C175.695 146.641 175.747 146.812 175.852 146.953C175.956 147.089 176.091 147.208 176.258 147.312C176.424 147.417 176.615 147.51 176.828 147.594C177.042 147.677 177.258 147.763 177.477 147.852C177.701 147.94 177.919 148.039 178.133 148.148C178.352 148.258 178.544 148.391 178.711 148.547C178.878 148.703 179.01 148.891 179.109 149.109C179.214 149.328 179.266 149.589 179.266 149.891ZM182.556 151.805C182.556 151.846 182.546 151.883 182.525 151.914C182.504 151.94 182.47 151.964 182.423 151.984C182.377 152.005 182.311 152.021 182.228 152.031C182.145 152.042 182.038 152.047 181.908 152.047C181.783 152.047 181.679 152.042 181.595 152.031C181.512 152.021 181.444 152.005 181.392 151.984C181.345 151.964 181.311 151.94 181.291 151.914C181.275 151.883 181.267 151.846 181.267 151.805V144.773C181.267 144.737 181.275 144.703 181.291 144.672C181.311 144.641 181.345 144.615 181.392 144.594C181.444 144.573 181.512 144.557 181.595 144.547C181.679 144.536 181.783 144.531 181.908 144.531C182.038 144.531 182.145 144.536 182.228 144.547C182.311 144.557 182.377 144.573 182.423 144.594C182.47 144.615 182.504 144.641 182.525 144.672C182.546 144.703 182.556 144.737 182.556 144.773V151.805ZM182.705 142.398C182.705 142.701 182.647 142.906 182.533 143.016C182.418 143.125 182.207 143.18 181.9 143.18C181.598 143.18 181.39 143.128 181.275 143.023C181.166 142.914 181.111 142.711 181.111 142.414C181.111 142.112 181.168 141.906 181.283 141.797C181.397 141.688 181.608 141.633 181.916 141.633C182.218 141.633 182.423 141.688 182.533 141.797C182.647 141.901 182.705 142.102 182.705 142.398Z" fill="black"/>
</svg>
