<svg width="156" height="125" viewBox="0 0 156 125" fill="none" xmlns="http://www.w3.org/2000/svg">
<path fill-rule="evenodd" clip-rule="evenodd" d="M129.168 40.625C131.58 40.625 133.536 42.5838 133.536 45C133.536 47.4162 131.58 49.375 129.168 49.375H104.208C106.62 49.375 108.576 51.3338 108.576 53.75C108.576 56.1662 106.62 58.125 104.208 58.125H117.936C120.348 58.125 122.304 60.0838 122.304 62.5C122.304 64.9162 120.348 66.875 117.936 66.875H111.587C108.546 66.875 106.08 68.8338 106.08 71.25C106.08 72.8608 107.328 74.3192 109.824 75.625C112.236 75.625 114.192 77.5838 114.192 80C114.192 82.4162 112.236 84.375 109.824 84.375H58.032C55.6196 84.375 53.664 82.4162 53.664 80C53.664 77.5838 55.6196 75.625 58.032 75.625H33.696C31.2836 75.625 29.328 73.6662 29.328 71.25C29.328 68.8338 31.2836 66.875 33.696 66.875H58.656C61.0684 66.875 63.024 64.9162 63.024 62.5C63.024 60.0838 61.0684 58.125 58.656 58.125H43.056C40.6436 58.125 38.688 56.1662 38.688 53.75C38.688 51.3338 40.6436 49.375 43.056 49.375H68.016C65.6036 49.375 63.648 47.4162 63.648 45C63.648 42.5838 65.6036 40.625 68.016 40.625H129.168ZM129.168 58.125C131.58 58.125 133.536 60.0838 133.536 62.5C133.536 64.9162 131.58 66.875 129.168 66.875C126.756 66.875 124.8 64.9162 124.8 62.5C124.8 60.0838 126.756 58.125 129.168 58.125Z" fill="#F3F7FF"/>
<g clip-path="url(#clip0_4462_1532)">
<path d="M78.2086 41.4702L79.411 41.2268V40V37.8906C79.411 36.7767 80.3107 35.875 81.4321 35.875C82.5536 35.875 83.4533 36.7767 83.4533 37.8906V40V41.2268L84.6557 41.4702C92.0039 42.9576 97.5379 49.4522 97.5379 57.2266V59.292C97.5379 64.8361 99.5777 70.1666 103.253 74.3064L103.256 74.3096L104.07 75.2215L104.071 75.2228C104.601 75.8147 104.732 76.6632 104.406 77.3829C104.075 78.1127 103.353 78.5781 102.559 78.5781H60.3053C59.5036 78.5781 58.7803 78.1069 58.4631 77.3928C58.1371 76.6589 58.2698 75.8076 58.7931 75.2228L58.7943 75.2215L59.6086 74.3096L59.6114 74.3064C63.2869 70.1663 65.3264 64.8247 65.3264 59.292V57.2266C65.3264 49.4522 70.8604 42.9576 78.2086 41.4702ZM86.7689 85.0938C86.5152 86.0005 86.0329 86.8342 85.3569 87.5091C84.3204 88.5439 82.9092 89.125 81.4321 89.125C79.9551 89.125 78.5439 88.5439 77.5074 87.5091C76.8314 86.8342 76.3491 86.0005 76.0954 85.0938H81.4321H86.7689Z" fill="#F3F7FF" stroke="#1F64E7" stroke-width="3"/>
<path d="M71.76 57.5C71.76 59.2259 73.1569 60.625 74.88 60.625C76.6031 60.625 78 59.2259 78 57.5" stroke="#1F64E7" stroke-width="2.5" stroke-linecap="round"/>
<path d="M84.864 57.5C84.864 59.2259 86.2609 60.625 87.984 60.625C89.7071 60.625 91.104 59.2259 91.104 57.5" stroke="#1F64E7" stroke-width="2.5" stroke-linecap="round"/>
<path d="M78 66.25H84.6352" stroke="#1F64E7" stroke-width="2.5" stroke-linecap="round"/>
<ellipse cx="89.1183" cy="48.5629" rx="3.27802" ry="1.56795" transform="rotate(-136.441 89.1183 48.5629)" fill="white"/>
</g>
<path fill-rule="evenodd" clip-rule="evenodd" d="M54.4135 35H49.5808V35.9627H52.9984L49.296 40.4555V41.3648H54.5025V40.402H50.7111L54.4135 35.8469V35ZM59.8393 41.193H56.3246V41.8932H58.8102L56.1175 45.1607V45.8219H59.904V45.1218H57.1467L59.8393 41.8089V41.193Z" fill="#75A4FE"/>
<path d="M47.7598 98.8516C47.7598 98.9258 47.7559 98.9902 47.748 99.0449C47.7402 99.0996 47.7266 99.1445 47.707 99.1797C47.6914 99.2109 47.6699 99.2344 47.6426 99.25C47.6191 99.2656 47.5918 99.2734 47.5605 99.2734H45.4277V105.848C45.4277 105.879 45.4199 105.906 45.4043 105.93C45.3887 105.953 45.3613 105.973 45.3223 105.988C45.2832 106 45.2305 106.01 45.1641 106.018C45.1016 106.029 45.0215 106.035 44.9238 106.035C44.8301 106.035 44.75 106.029 44.6836 106.018C44.6172 106.01 44.5645 106 44.5254 105.988C44.4863 105.973 44.459 105.953 44.4434 105.93C44.4277 105.906 44.4199 105.879 44.4199 105.848V99.2734H42.2871C42.2559 99.2734 42.2266 99.2656 42.1992 99.25C42.1758 99.2344 42.1562 99.2109 42.1406 99.1797C42.125 99.1445 42.1113 99.0996 42.0996 99.0449C42.0918 98.9902 42.0879 98.9258 42.0879 98.8516C42.0879 98.7773 42.0918 98.7129 42.0996 98.6582C42.1113 98.5996 42.125 98.5527 42.1406 98.5176C42.1562 98.4824 42.1758 98.457 42.1992 98.4414C42.2266 98.4258 42.2559 98.418 42.2871 98.418H47.5605C47.5918 98.418 47.6191 98.4258 47.6426 98.4414C47.6699 98.457 47.6914 98.4824 47.707 98.5176C47.7266 98.5527 47.7402 98.5996 47.748 98.6582C47.7559 98.7129 47.7598 98.7773 47.7598 98.8516ZM49.7109 105.854C49.7109 105.885 49.7031 105.912 49.6875 105.936C49.6719 105.955 49.6465 105.973 49.6113 105.988C49.5762 106.004 49.5273 106.016 49.4648 106.023C49.4023 106.031 49.3223 106.035 49.2246 106.035C49.1309 106.035 49.0527 106.031 48.9902 106.023C48.9277 106.016 48.877 106.004 48.8379 105.988C48.8027 105.973 48.7773 105.955 48.7617 105.936C48.75 105.912 48.7441 105.885 48.7441 105.854V100.58C48.7441 100.553 48.75 100.527 48.7617 100.504C48.7773 100.48 48.8027 100.461 48.8379 100.445C48.877 100.43 48.9277 100.418 48.9902 100.41C49.0527 100.402 49.1309 100.398 49.2246 100.398C49.3223 100.398 49.4023 100.402 49.4648 100.41C49.5273 100.418 49.5762 100.43 49.6113 100.445C49.6465 100.461 49.6719 100.48 49.6875 100.504C49.7031 100.527 49.7109 100.553 49.7109 100.58V105.854ZM49.8223 98.7988C49.8223 99.0254 49.7793 99.1797 49.6934 99.2617C49.6074 99.3438 49.4492 99.3848 49.2188 99.3848C48.9922 99.3848 48.8359 99.3457 48.75 99.2676C48.668 99.1855 48.627 99.0332 48.627 98.8105C48.627 98.584 48.6699 98.4297 48.7559 98.3477C48.8418 98.2656 49 98.2246 49.2305 98.2246C49.457 98.2246 49.6113 98.2656 49.6934 98.3477C49.7793 98.4258 49.8223 98.5762 49.8223 98.7988ZM56.0156 105.854C56.0156 105.885 56.0078 105.912 55.9922 105.936C55.9805 105.959 55.957 105.979 55.9219 105.994C55.8906 106.006 55.8477 106.016 55.793 106.023C55.7383 106.031 55.6719 106.035 55.5938 106.035C55.5117 106.035 55.4434 106.031 55.3887 106.023C55.334 106.016 55.2891 106.006 55.2539 105.994C55.2188 105.979 55.1934 105.959 55.1777 105.936C55.1621 105.912 55.1543 105.885 55.1543 105.854V105.156C54.877 105.457 54.5879 105.691 54.2871 105.859C53.9902 106.027 53.6641 106.111 53.3086 106.111C52.9219 106.111 52.5918 106.037 52.3184 105.889C52.0449 105.736 51.8223 105.533 51.6504 105.279C51.4824 105.021 51.3594 104.721 51.2812 104.377C51.2031 104.029 51.1641 103.664 51.1641 103.281C51.1641 102.828 51.2129 102.42 51.3105 102.057C51.4082 101.689 51.5527 101.377 51.7441 101.119C51.9355 100.861 52.1719 100.664 52.4531 100.527C52.7383 100.387 53.0664 100.316 53.4375 100.316C53.7461 100.316 54.0273 100.385 54.2812 100.521C54.5391 100.654 54.793 100.852 55.043 101.113V98.0488C55.043 98.0215 55.0488 97.9961 55.0605 97.9727C55.0762 97.9453 55.1035 97.9258 55.1426 97.9141C55.1816 97.8984 55.2305 97.8867 55.2891 97.8789C55.3516 97.8672 55.4297 97.8613 55.5234 97.8613C55.6211 97.8613 55.7012 97.8672 55.7637 97.8789C55.8262 97.8867 55.875 97.8984 55.9102 97.9141C55.9453 97.9258 55.9707 97.9453 55.9863 97.9727C56.0059 97.9961 56.0156 98.0215 56.0156 98.0488V105.854ZM55.043 102.145C54.7812 101.82 54.5273 101.574 54.2812 101.406C54.0391 101.234 53.7852 101.148 53.5195 101.148C53.2734 101.148 53.0645 101.207 52.8926 101.324C52.7207 101.441 52.5801 101.596 52.4707 101.787C52.3652 101.979 52.2871 102.195 52.2363 102.438C52.1895 102.68 52.166 102.926 52.166 103.176C52.166 103.441 52.1855 103.701 52.2246 103.955C52.2676 104.209 52.3398 104.436 52.4414 104.635C52.543 104.83 52.6777 104.988 52.8457 105.109C53.0137 105.227 53.2246 105.285 53.4785 105.285C53.6074 105.285 53.7305 105.268 53.8477 105.232C53.9688 105.197 54.0918 105.139 54.2168 105.057C54.3418 104.975 54.4727 104.869 54.6094 104.74C54.7461 104.607 54.8906 104.445 55.043 104.254V102.145ZM61.7754 105.859C61.7754 105.906 61.7598 105.941 61.7285 105.965C61.6973 105.988 61.6543 106.006 61.5996 106.018C61.5449 106.029 61.4648 106.035 61.3594 106.035C61.2578 106.035 61.1758 106.029 61.1133 106.018C61.0547 106.006 61.0117 105.988 60.9844 105.965C60.957 105.941 60.9434 105.906 60.9434 105.859V105.332C60.7129 105.578 60.4551 105.77 60.1699 105.906C59.8887 106.043 59.5898 106.111 59.2734 106.111C58.9961 106.111 58.7441 106.074 58.5176 106C58.2949 105.93 58.1035 105.826 57.9434 105.689C57.7871 105.553 57.6641 105.385 57.5742 105.186C57.4883 104.986 57.4453 104.76 57.4453 104.506C57.4453 104.209 57.5059 103.951 57.627 103.732C57.748 103.514 57.9219 103.332 58.1484 103.188C58.375 103.043 58.6523 102.936 58.9805 102.865C59.3086 102.791 59.6777 102.754 60.0879 102.754H60.8145V102.344C60.8145 102.141 60.793 101.961 60.75 101.805C60.707 101.648 60.6367 101.52 60.5391 101.418C60.4453 101.312 60.3223 101.234 60.1699 101.184C60.0176 101.129 59.8301 101.102 59.6074 101.102C59.3691 101.102 59.1543 101.131 58.9629 101.189C58.7754 101.244 58.6094 101.307 58.4648 101.377C58.3242 101.443 58.2051 101.506 58.1074 101.564C58.0137 101.619 57.9434 101.646 57.8965 101.646C57.8652 101.646 57.8379 101.639 57.8145 101.623C57.791 101.607 57.7695 101.584 57.75 101.553C57.7344 101.521 57.7227 101.482 57.7148 101.436C57.707 101.385 57.7031 101.33 57.7031 101.271C57.7031 101.174 57.709 101.098 57.7207 101.043C57.7363 100.984 57.7695 100.93 57.8203 100.879C57.875 100.828 57.9668 100.77 58.0957 100.703C58.2246 100.633 58.373 100.57 58.541 100.516C58.709 100.457 58.8926 100.41 59.0918 100.375C59.291 100.336 59.4922 100.316 59.6953 100.316C60.0742 100.316 60.3965 100.359 60.6621 100.445C60.9277 100.531 61.1426 100.658 61.3066 100.826C61.4707 100.99 61.5898 101.195 61.6641 101.441C61.7383 101.688 61.7754 101.975 61.7754 102.303V105.859ZM60.8145 103.451H59.9883C59.7227 103.451 59.4922 103.475 59.2969 103.521C59.1016 103.564 58.9395 103.631 58.8105 103.721C58.6816 103.807 58.5859 103.912 58.5234 104.037C58.4648 104.158 58.4355 104.299 58.4355 104.459C58.4355 104.732 58.5215 104.951 58.6934 105.115C58.8691 105.275 59.1133 105.355 59.4258 105.355C59.6797 105.355 59.9141 105.291 60.1289 105.162C60.3477 105.033 60.5762 104.836 60.8145 104.57V103.451ZM67.8867 105.848C67.8867 105.879 67.8789 105.906 67.8633 105.93C67.8477 105.953 67.8203 105.973 67.7812 105.988C67.7461 106.004 67.6953 106.016 67.6289 106.023C67.5625 106.031 67.4785 106.035 67.377 106.035C67.2715 106.035 67.1836 106.031 67.1133 106.023C67.0469 106.02 66.9902 106.012 66.9434 106C66.8965 105.984 66.8574 105.965 66.8262 105.941C66.7988 105.914 66.7734 105.883 66.75 105.848L64.5234 102.93V105.854C64.5234 105.885 64.5156 105.912 64.5 105.936C64.4844 105.955 64.459 105.973 64.4238 105.988C64.3887 106.004 64.3398 106.016 64.2773 106.023C64.2148 106.031 64.1348 106.035 64.0371 106.035C63.9434 106.035 63.8652 106.031 63.8027 106.023C63.7402 106.016 63.6895 106.004 63.6504 105.988C63.6152 105.973 63.5898 105.955 63.5742 105.936C63.5625 105.912 63.5566 105.885 63.5566 105.854V98.0254C63.5566 97.9941 63.5625 97.9668 63.5742 97.9434C63.5898 97.9199 63.6152 97.9004 63.6504 97.8848C63.6895 97.8691 63.7402 97.8574 63.8027 97.8496C63.8652 97.8418 63.9434 97.8379 64.0371 97.8379C64.1348 97.8379 64.2148 97.8418 64.2773 97.8496C64.3398 97.8574 64.3887 97.8691 64.4238 97.8848C64.459 97.9004 64.4844 97.9199 64.5 97.9434C64.5156 97.9668 64.5234 97.9941 64.5234 98.0254V102.795L66.5156 100.604C66.5469 100.564 66.5801 100.533 66.6152 100.51C66.6504 100.482 66.6914 100.461 66.7383 100.445C66.7891 100.426 66.8477 100.414 66.9141 100.41C66.9805 100.402 67.0605 100.398 67.1543 100.398C67.252 100.398 67.334 100.402 67.4004 100.41C67.4668 100.414 67.5195 100.424 67.5586 100.439C67.6016 100.451 67.6309 100.469 67.6465 100.492C67.666 100.512 67.6758 100.539 67.6758 100.574C67.6758 100.621 67.6621 100.668 67.6348 100.715C67.6113 100.762 67.5703 100.816 67.5117 100.879L65.6016 102.789L67.7461 105.572C67.7969 105.639 67.832 105.693 67.8516 105.736C67.875 105.775 67.8867 105.812 67.8867 105.848ZM75.709 105.859C75.709 105.906 75.6934 105.941 75.6621 105.965C75.6309 105.988 75.5879 106.006 75.5332 106.018C75.4785 106.029 75.3984 106.035 75.293 106.035C75.1914 106.035 75.1094 106.029 75.0469 106.018C74.9883 106.006 74.9453 105.988 74.918 105.965C74.8906 105.941 74.877 105.906 74.877 105.859V105.332C74.6465 105.578 74.3887 105.77 74.1035 105.906C73.8223 106.043 73.5234 106.111 73.207 106.111C72.9297 106.111 72.6777 106.074 72.4512 106C72.2285 105.93 72.0371 105.826 71.877 105.689C71.7207 105.553 71.5977 105.385 71.5078 105.186C71.4219 104.986 71.3789 104.76 71.3789 104.506C71.3789 104.209 71.4395 103.951 71.5605 103.732C71.6816 103.514 71.8555 103.332 72.082 103.188C72.3086 103.043 72.5859 102.936 72.9141 102.865C73.2422 102.791 73.6113 102.754 74.0215 102.754H74.748V102.344C74.748 102.141 74.7266 101.961 74.6836 101.805C74.6406 101.648 74.5703 101.52 74.4727 101.418C74.3789 101.312 74.2559 101.234 74.1035 101.184C73.9512 101.129 73.7637 101.102 73.541 101.102C73.3027 101.102 73.0879 101.131 72.8965 101.189C72.709 101.244 72.543 101.307 72.3984 101.377C72.2578 101.443 72.1387 101.506 72.041 101.564C71.9473 101.619 71.877 101.646 71.8301 101.646C71.7988 101.646 71.7715 101.639 71.748 101.623C71.7246 101.607 71.7031 101.584 71.6836 101.553C71.668 101.521 71.6562 101.482 71.6484 101.436C71.6406 101.385 71.6367 101.33 71.6367 101.271C71.6367 101.174 71.6426 101.098 71.6543 101.043C71.6699 100.984 71.7031 100.93 71.7539 100.879C71.8086 100.828 71.9004 100.77 72.0293 100.703C72.1582 100.633 72.3066 100.57 72.4746 100.516C72.6426 100.457 72.8262 100.41 73.0254 100.375C73.2246 100.336 73.4258 100.316 73.6289 100.316C74.0078 100.316 74.3301 100.359 74.5957 100.445C74.8613 100.531 75.0762 100.658 75.2402 100.826C75.4043 100.99 75.5234 101.195 75.5977 101.441C75.6719 101.688 75.709 101.975 75.709 102.303V105.859ZM74.748 103.451H73.9219C73.6562 103.451 73.4258 103.475 73.2305 103.521C73.0352 103.564 72.873 103.631 72.7441 103.721C72.6152 103.807 72.5195 103.912 72.457 104.037C72.3984 104.158 72.3691 104.299 72.3691 104.459C72.3691 104.732 72.4551 104.951 72.627 105.115C72.8027 105.275 73.0469 105.355 73.3594 105.355C73.6133 105.355 73.8477 105.291 74.0625 105.162C74.2812 105.033 74.5098 104.836 74.748 104.57V103.451ZM82.0078 105.854C82.0078 105.885 82 105.912 81.9844 105.936C81.9727 105.959 81.9492 105.979 81.9141 105.994C81.8828 106.006 81.8398 106.016 81.7852 106.023C81.7305 106.031 81.6641 106.035 81.5859 106.035C81.5039 106.035 81.4355 106.031 81.3809 106.023C81.3262 106.016 81.2812 106.006 81.2461 105.994C81.2109 105.979 81.1855 105.959 81.1699 105.936C81.1543 105.912 81.1465 105.885 81.1465 105.854V105.156C80.8691 105.457 80.5801 105.691 80.2793 105.859C79.9824 106.027 79.6562 106.111 79.3008 106.111C78.9141 106.111 78.584 106.037 78.3105 105.889C78.0371 105.736 77.8145 105.533 77.6426 105.279C77.4746 105.021 77.3516 104.721 77.2734 104.377C77.1953 104.029 77.1562 103.664 77.1562 103.281C77.1562 102.828 77.2051 102.42 77.3027 102.057C77.4004 101.689 77.5449 101.377 77.7363 101.119C77.9277 100.861 78.1641 100.664 78.4453 100.527C78.7305 100.387 79.0586 100.316 79.4297 100.316C79.7383 100.316 80.0195 100.385 80.2734 100.521C80.5312 100.654 80.7852 100.852 81.0352 101.113V98.0488C81.0352 98.0215 81.041 97.9961 81.0527 97.9727C81.0684 97.9453 81.0957 97.9258 81.1348 97.9141C81.1738 97.8984 81.2227 97.8867 81.2812 97.8789C81.3438 97.8672 81.4219 97.8613 81.5156 97.8613C81.6133 97.8613 81.6934 97.8672 81.7559 97.8789C81.8184 97.8867 81.8672 97.8984 81.9023 97.9141C81.9375 97.9258 81.9629 97.9453 81.9785 97.9727C81.998 97.9961 82.0078 98.0215 82.0078 98.0488V105.854ZM81.0352 102.145C80.7734 101.82 80.5195 101.574 80.2734 101.406C80.0312 101.234 79.7773 101.148 79.5117 101.148C79.2656 101.148 79.0566 101.207 78.8848 101.324C78.7129 101.441 78.5723 101.596 78.4629 101.787C78.3574 101.979 78.2793 102.195 78.2285 102.438C78.1816 102.68 78.1582 102.926 78.1582 103.176C78.1582 103.441 78.1777 103.701 78.2168 103.955C78.2598 104.209 78.332 104.436 78.4336 104.635C78.5352 104.83 78.6699 104.988 78.8379 105.109C79.0059 105.227 79.2168 105.285 79.4707 105.285C79.5996 105.285 79.7227 105.268 79.8398 105.232C79.9609 105.197 80.084 105.139 80.209 105.057C80.334 104.975 80.4648 104.869 80.6016 104.74C80.7383 104.607 80.8828 104.445 81.0352 104.254V102.145ZM87.7676 105.859C87.7676 105.906 87.752 105.941 87.7207 105.965C87.6895 105.988 87.6465 106.006 87.5918 106.018C87.5371 106.029 87.457 106.035 87.3516 106.035C87.25 106.035 87.168 106.029 87.1055 106.018C87.0469 106.006 87.0039 105.988 86.9766 105.965C86.9492 105.941 86.9355 105.906 86.9355 105.859V105.332C86.7051 105.578 86.4473 105.77 86.1621 105.906C85.8809 106.043 85.582 106.111 85.2656 106.111C84.9883 106.111 84.7363 106.074 84.5098 106C84.2871 105.93 84.0957 105.826 83.9355 105.689C83.7793 105.553 83.6562 105.385 83.5664 105.186C83.4805 104.986 83.4375 104.76 83.4375 104.506C83.4375 104.209 83.498 103.951 83.6191 103.732C83.7402 103.514 83.9141 103.332 84.1406 103.188C84.3672 103.043 84.6445 102.936 84.9727 102.865C85.3008 102.791 85.6699 102.754 86.0801 102.754H86.8066V102.344C86.8066 102.141 86.7852 101.961 86.7422 101.805C86.6992 101.648 86.6289 101.52 86.5312 101.418C86.4375 101.312 86.3145 101.234 86.1621 101.184C86.0098 101.129 85.8223 101.102 85.5996 101.102C85.3613 101.102 85.1465 101.131 84.9551 101.189C84.7676 101.244 84.6016 101.307 84.457 101.377C84.3164 101.443 84.1973 101.506 84.0996 101.564C84.0059 101.619 83.9355 101.646 83.8887 101.646C83.8574 101.646 83.8301 101.639 83.8066 101.623C83.7832 101.607 83.7617 101.584 83.7422 101.553C83.7266 101.521 83.7148 101.482 83.707 101.436C83.6992 101.385 83.6953 101.33 83.6953 101.271C83.6953 101.174 83.7012 101.098 83.7129 101.043C83.7285 100.984 83.7617 100.93 83.8125 100.879C83.8672 100.828 83.959 100.77 84.0879 100.703C84.2168 100.633 84.3652 100.57 84.5332 100.516C84.7012 100.457 84.8848 100.41 85.084 100.375C85.2832 100.336 85.4844 100.316 85.6875 100.316C86.0664 100.316 86.3887 100.359 86.6543 100.445C86.9199 100.531 87.1348 100.658 87.2988 100.826C87.4629 100.99 87.582 101.195 87.6562 101.441C87.7305 101.688 87.7676 101.975 87.7676 102.303V105.859ZM86.8066 103.451H85.9805C85.7148 103.451 85.4844 103.475 85.2891 103.521C85.0938 103.564 84.9316 103.631 84.8027 103.721C84.6738 103.807 84.5781 103.912 84.5156 104.037C84.457 104.158 84.4277 104.299 84.4277 104.459C84.4277 104.732 84.5137 104.951 84.6855 105.115C84.8613 105.275 85.1055 105.355 85.418 105.355C85.6719 105.355 85.9062 105.291 86.1211 105.162C86.3398 105.033 86.5684 104.836 86.8066 104.57V103.451ZM96.8086 105.854C96.8086 105.885 96.8008 105.912 96.7852 105.936C96.7695 105.955 96.7441 105.973 96.709 105.988C96.6738 106.004 96.625 106.016 96.5625 106.023C96.5 106.031 96.4219 106.035 96.3281 106.035C96.2305 106.035 96.1504 106.031 96.0879 106.023C96.0254 106.016 95.9766 106.004 95.9414 105.988C95.9062 105.973 95.8809 105.955 95.8652 105.936C95.8496 105.912 95.8418 105.885 95.8418 105.854V102.766C95.8418 102.465 95.8184 102.223 95.7715 102.039C95.7246 101.855 95.6562 101.697 95.5664 101.564C95.4766 101.432 95.3594 101.33 95.2148 101.26C95.0742 101.189 94.9102 101.154 94.7227 101.154C94.4805 101.154 94.2383 101.24 93.9961 101.412C93.7539 101.584 93.5 101.836 93.2344 102.168V105.854C93.2344 105.885 93.2266 105.912 93.2109 105.936C93.1953 105.955 93.1699 105.973 93.1348 105.988C93.0996 106.004 93.0508 106.016 92.9883 106.023C92.9258 106.031 92.8457 106.035 92.748 106.035C92.6543 106.035 92.5762 106.031 92.5137 106.023C92.4512 106.016 92.4004 106.004 92.3613 105.988C92.3262 105.973 92.3008 105.955 92.2852 105.936C92.2734 105.912 92.2676 105.885 92.2676 105.854V100.58C92.2676 100.549 92.2734 100.523 92.2852 100.504C92.2969 100.48 92.3203 100.461 92.3555 100.445C92.3906 100.426 92.4355 100.414 92.4902 100.41C92.5449 100.402 92.6172 100.398 92.707 100.398C92.793 100.398 92.8633 100.402 92.918 100.41C92.9766 100.414 93.0215 100.426 93.0527 100.445C93.084 100.461 93.1055 100.48 93.1172 100.504C93.1328 100.523 93.1406 100.549 93.1406 100.58V101.277C93.4375 100.945 93.7324 100.703 94.0254 100.551C94.3223 100.395 94.6211 100.316 94.9219 100.316C95.2734 100.316 95.5684 100.377 95.8066 100.498C96.0488 100.615 96.2441 100.773 96.3926 100.973C96.541 101.172 96.6465 101.406 96.709 101.676C96.7754 101.941 96.8086 102.262 96.8086 102.637V105.854ZM103.477 103.158C103.477 103.588 103.42 103.984 103.307 104.348C103.193 104.707 103.023 105.018 102.797 105.279C102.574 105.541 102.293 105.746 101.953 105.895C101.617 106.039 101.227 106.111 100.781 106.111C100.348 106.111 99.9688 106.047 99.6445 105.918C99.3242 105.789 99.0566 105.602 98.8418 105.355C98.627 105.109 98.4668 104.811 98.3613 104.459C98.2559 104.107 98.2031 103.709 98.2031 103.264C98.2031 102.834 98.2578 102.439 98.3672 102.08C98.4805 101.717 98.6484 101.404 98.8711 101.143C99.0977 100.881 99.3789 100.678 99.7148 100.533C100.051 100.389 100.443 100.316 100.893 100.316C101.326 100.316 101.703 100.381 102.023 100.51C102.348 100.639 102.617 100.826 102.832 101.072C103.047 101.318 103.207 101.617 103.312 101.969C103.422 102.32 103.477 102.717 103.477 103.158ZM102.457 103.223C102.457 102.938 102.43 102.668 102.375 102.414C102.324 102.16 102.238 101.938 102.117 101.746C101.996 101.555 101.832 101.404 101.625 101.295C101.418 101.182 101.16 101.125 100.852 101.125C100.566 101.125 100.32 101.176 100.113 101.277C99.9102 101.379 99.7422 101.523 99.6094 101.711C99.4766 101.895 99.377 102.113 99.3105 102.367C99.248 102.621 99.2168 102.898 99.2168 103.199C99.2168 103.488 99.2422 103.76 99.293 104.014C99.3477 104.268 99.4355 104.49 99.5566 104.682C99.6816 104.869 99.8477 105.02 100.055 105.133C100.262 105.242 100.52 105.297 100.828 105.297C101.109 105.297 101.354 105.246 101.561 105.145C101.768 105.043 101.938 104.9 102.07 104.717C102.203 104.533 102.301 104.314 102.363 104.061C102.426 103.807 102.457 103.527 102.457 103.223ZM109.488 100.428C109.605 100.428 109.686 100.455 109.729 100.51C109.771 100.561 109.793 100.637 109.793 100.738V105.854C109.793 105.885 109.785 105.912 109.77 105.936C109.754 105.955 109.727 105.973 109.688 105.988C109.652 106.004 109.604 106.016 109.541 106.023C109.479 106.031 109.402 106.035 109.312 106.035C109.215 106.035 109.135 106.031 109.072 106.023C109.01 106.016 108.959 106.004 108.92 105.988C108.885 105.973 108.859 105.955 108.844 105.936C108.828 105.912 108.82 105.885 108.82 105.854V101.23H106.096V104.172C106.096 104.535 106.148 104.811 106.254 104.998C106.363 105.182 106.557 105.273 106.834 105.273C106.924 105.273 107.004 105.266 107.074 105.25C107.145 105.23 107.207 105.211 107.262 105.191C107.316 105.172 107.363 105.154 107.402 105.139C107.441 105.119 107.477 105.109 107.508 105.109C107.527 105.109 107.545 105.115 107.561 105.127C107.58 105.135 107.594 105.152 107.602 105.18C107.613 105.207 107.623 105.244 107.631 105.291C107.639 105.338 107.643 105.396 107.643 105.467C107.643 105.58 107.635 105.67 107.619 105.736C107.604 105.799 107.58 105.848 107.549 105.883C107.518 105.914 107.471 105.943 107.408 105.971C107.346 105.998 107.273 106.02 107.191 106.035C107.113 106.055 107.029 106.07 106.939 106.082C106.85 106.094 106.76 106.1 106.67 106.1C106.396 106.1 106.162 106.064 105.967 105.994C105.771 105.92 105.611 105.811 105.486 105.666C105.361 105.518 105.27 105.332 105.211 105.109C105.156 104.883 105.129 104.617 105.129 104.312V101.23H104.391C104.332 101.23 104.285 101.199 104.25 101.137C104.215 101.074 104.197 100.973 104.197 100.832C104.197 100.758 104.201 100.695 104.209 100.645C104.221 100.594 104.234 100.553 104.25 100.521C104.266 100.486 104.285 100.463 104.309 100.451C104.336 100.436 104.365 100.428 104.396 100.428H105.129V99.1738C105.129 99.1465 105.135 99.1211 105.146 99.0977C105.162 99.0742 105.188 99.0547 105.223 99.0391C105.262 99.0195 105.312 99.0059 105.375 98.998C105.438 98.9902 105.516 98.9863 105.609 98.9863C105.707 98.9863 105.787 98.9902 105.85 98.998C105.912 99.0059 105.961 99.0195 105.996 99.0391C106.031 99.0547 106.057 99.0742 106.072 99.0977C106.088 99.1211 106.096 99.1465 106.096 99.1738V100.428H109.488ZM109.904 98.7988C109.904 99.0254 109.861 99.1797 109.775 99.2617C109.689 99.3438 109.531 99.3848 109.301 99.3848C109.074 99.3848 108.918 99.3457 108.832 99.2676C108.75 99.1855 108.709 99.0332 108.709 98.8105C108.709 98.584 108.752 98.4297 108.838 98.3477C108.924 98.2656 109.082 98.2246 109.312 98.2246C109.539 98.2246 109.693 98.2656 109.775 98.3477C109.861 98.4258 109.904 98.5762 109.904 98.7988ZM116.262 98.8047C116.262 98.9141 116.252 99.0059 116.232 99.0801C116.217 99.1543 116.188 99.2148 116.145 99.2617C116.102 99.3047 116.041 99.3359 115.963 99.3555C115.889 99.375 115.793 99.3848 115.676 99.3848C115.562 99.3848 115.467 99.375 115.389 99.3555C115.314 99.3359 115.254 99.3047 115.207 99.2617C115.164 99.2148 115.133 99.1543 115.113 99.0801C115.094 99.0059 115.084 98.9141 115.084 98.8047C115.084 98.6953 115.094 98.6055 115.113 98.5352C115.133 98.4609 115.164 98.4004 115.207 98.3535C115.254 98.3027 115.314 98.2695 115.389 98.2539C115.467 98.2344 115.562 98.2246 115.676 98.2246C115.793 98.2246 115.889 98.2344 115.963 98.2539C116.041 98.2695 116.102 98.3027 116.145 98.3535C116.188 98.4004 116.217 98.4609 116.232 98.5352C116.252 98.6055 116.262 98.6953 116.262 98.8047ZM116.156 105.854C116.156 105.885 116.148 105.912 116.133 105.936C116.117 105.955 116.09 105.973 116.051 105.988C116.016 106.004 115.967 106.016 115.904 106.023C115.842 106.031 115.764 106.035 115.67 106.035C115.576 106.035 115.498 106.031 115.436 106.023C115.373 106.016 115.322 106.004 115.283 105.988C115.248 105.973 115.223 105.955 115.207 105.936C115.191 105.912 115.184 105.885 115.184 105.854V101.23H112.816V105.854C112.816 105.885 112.809 105.912 112.793 105.936C112.777 105.955 112.75 105.973 112.711 105.988C112.676 106.004 112.627 106.016 112.564 106.023C112.502 106.031 112.424 106.035 112.33 106.035C112.236 106.035 112.158 106.031 112.096 106.023C112.033 106.016 111.982 106.004 111.943 105.988C111.908 105.973 111.883 105.955 111.867 105.936C111.852 105.912 111.844 105.885 111.844 105.854V101.23H111.1C111.037 101.23 110.99 101.199 110.959 101.137C110.928 101.074 110.912 100.973 110.912 100.832C110.912 100.758 110.916 100.695 110.924 100.645C110.932 100.594 110.943 100.553 110.959 100.521C110.975 100.486 110.994 100.463 111.018 100.451C111.041 100.436 111.068 100.428 111.1 100.428H111.844V99.8594C111.844 99.4961 111.879 99.1855 111.949 98.9277C112.02 98.666 112.123 98.4512 112.26 98.2832C112.4 98.1152 112.572 97.9922 112.775 97.9141C112.982 97.832 113.219 97.791 113.484 97.791C113.57 97.791 113.656 97.7949 113.742 97.8027C113.828 97.8105 113.906 97.8223 113.977 97.8379C114.047 97.8535 114.107 97.8711 114.158 97.8906C114.213 97.9062 114.25 97.9238 114.27 97.9434C114.289 97.9629 114.305 97.9844 114.316 98.0078C114.328 98.0273 114.338 98.0527 114.346 98.084C114.354 98.1152 114.359 98.1543 114.363 98.2012C114.367 98.248 114.369 98.3047 114.369 98.3711C114.369 98.4961 114.359 98.5859 114.34 98.6406C114.32 98.6953 114.287 98.7227 114.24 98.7227C114.209 98.7227 114.176 98.7168 114.141 98.7051C114.109 98.6895 114.068 98.6738 114.018 98.6582C113.967 98.6426 113.904 98.6289 113.83 98.6172C113.76 98.6016 113.67 98.5938 113.561 98.5938C113.291 98.5938 113.1 98.6934 112.986 98.8926C112.873 99.0918 112.816 99.4102 112.816 99.8477V100.428H115.857C115.959 100.428 116.033 100.455 116.08 100.51C116.131 100.561 116.156 100.633 116.156 100.727V105.854ZM122.273 105.848C122.273 105.879 122.266 105.906 122.25 105.93C122.234 105.953 122.207 105.973 122.168 105.988C122.133 106.004 122.082 106.016 122.016 106.023C121.949 106.031 121.865 106.035 121.764 106.035C121.658 106.035 121.57 106.031 121.5 106.023C121.434 106.02 121.377 106.012 121.33 106C121.283 105.984 121.244 105.965 121.213 105.941C121.186 105.914 121.16 105.883 121.137 105.848L118.91 102.93V105.854C118.91 105.885 118.902 105.912 118.887 105.936C118.871 105.955 118.846 105.973 118.811 105.988C118.775 106.004 118.727 106.016 118.664 106.023C118.602 106.031 118.521 106.035 118.424 106.035C118.33 106.035 118.252 106.031 118.189 106.023C118.127 106.016 118.076 106.004 118.037 105.988C118.002 105.973 117.977 105.955 117.961 105.936C117.949 105.912 117.943 105.885 117.943 105.854V98.0254C117.943 97.9941 117.949 97.9668 117.961 97.9434C117.977 97.9199 118.002 97.9004 118.037 97.8848C118.076 97.8691 118.127 97.8574 118.189 97.8496C118.252 97.8418 118.33 97.8379 118.424 97.8379C118.521 97.8379 118.602 97.8418 118.664 97.8496C118.727 97.8574 118.775 97.8691 118.811 97.8848C118.846 97.9004 118.871 97.9199 118.887 97.9434C118.902 97.9668 118.91 97.9941 118.91 98.0254V102.795L120.902 100.604C120.934 100.564 120.967 100.533 121.002 100.51C121.037 100.482 121.078 100.461 121.125 100.445C121.176 100.426 121.234 100.414 121.301 100.41C121.367 100.402 121.447 100.398 121.541 100.398C121.639 100.398 121.721 100.402 121.787 100.41C121.854 100.414 121.906 100.424 121.945 100.439C121.988 100.451 122.018 100.469 122.033 100.492C122.053 100.512 122.062 100.539 122.062 100.574C122.062 100.621 122.049 100.668 122.021 100.715C121.998 100.762 121.957 100.816 121.898 100.879L119.988 102.789L122.133 105.572C122.184 105.639 122.219 105.693 122.238 105.736C122.262 105.775 122.273 105.812 122.273 105.848ZM127.166 105.859C127.166 105.906 127.15 105.941 127.119 105.965C127.088 105.988 127.045 106.006 126.99 106.018C126.936 106.029 126.855 106.035 126.75 106.035C126.648 106.035 126.566 106.029 126.504 106.018C126.445 106.006 126.402 105.988 126.375 105.965C126.348 105.941 126.334 105.906 126.334 105.859V105.332C126.104 105.578 125.846 105.77 125.561 105.906C125.279 106.043 124.98 106.111 124.664 106.111C124.387 106.111 124.135 106.074 123.908 106C123.686 105.93 123.494 105.826 123.334 105.689C123.178 105.553 123.055 105.385 122.965 105.186C122.879 104.986 122.836 104.76 122.836 104.506C122.836 104.209 122.896 103.951 123.018 103.732C123.139 103.514 123.312 103.332 123.539 103.188C123.766 103.043 124.043 102.936 124.371 102.865C124.699 102.791 125.068 102.754 125.479 102.754H126.205V102.344C126.205 102.141 126.184 101.961 126.141 101.805C126.098 101.648 126.027 101.52 125.93 101.418C125.836 101.312 125.713 101.234 125.561 101.184C125.408 101.129 125.221 101.102 124.998 101.102C124.76 101.102 124.545 101.131 124.354 101.189C124.166 101.244 124 101.307 123.855 101.377C123.715 101.443 123.596 101.506 123.498 101.564C123.404 101.619 123.334 101.646 123.287 101.646C123.256 101.646 123.229 101.639 123.205 101.623C123.182 101.607 123.16 101.584 123.141 101.553C123.125 101.521 123.113 101.482 123.105 101.436C123.098 101.385 123.094 101.33 123.094 101.271C123.094 101.174 123.1 101.098 123.111 101.043C123.127 100.984 123.16 100.93 123.211 100.879C123.266 100.828 123.357 100.77 123.486 100.703C123.615 100.633 123.764 100.57 123.932 100.516C124.1 100.457 124.283 100.41 124.482 100.375C124.682 100.336 124.883 100.316 125.086 100.316C125.465 100.316 125.787 100.359 126.053 100.445C126.318 100.531 126.533 100.658 126.697 100.826C126.861 100.99 126.98 101.195 127.055 101.441C127.129 101.688 127.166 101.975 127.166 102.303V105.859ZM126.205 103.451H125.379C125.113 103.451 124.883 103.475 124.688 103.521C124.492 103.564 124.33 103.631 124.201 103.721C124.072 103.807 123.977 103.912 123.914 104.037C123.855 104.158 123.826 104.299 123.826 104.459C123.826 104.732 123.912 104.951 124.084 105.115C124.26 105.275 124.504 105.355 124.816 105.355C125.07 105.355 125.305 105.291 125.52 105.162C125.738 105.033 125.967 104.836 126.205 104.57V103.451ZM132.258 104.418C132.258 104.688 132.207 104.928 132.105 105.139C132.008 105.35 131.867 105.527 131.684 105.672C131.5 105.816 131.281 105.926 131.027 106C130.773 106.074 130.494 106.111 130.189 106.111C130.002 106.111 129.822 106.096 129.65 106.064C129.482 106.037 129.33 106.002 129.193 105.959C129.061 105.912 128.947 105.865 128.854 105.818C128.76 105.768 128.691 105.723 128.648 105.684C128.605 105.645 128.574 105.59 128.555 105.52C128.535 105.449 128.525 105.354 128.525 105.232C128.525 105.158 128.529 105.096 128.537 105.045C128.545 104.994 128.555 104.953 128.566 104.922C128.578 104.891 128.594 104.869 128.613 104.857C128.637 104.842 128.662 104.834 128.689 104.834C128.732 104.834 128.795 104.861 128.877 104.916C128.963 104.967 129.066 105.023 129.188 105.086C129.312 105.148 129.459 105.207 129.627 105.262C129.795 105.312 129.988 105.338 130.207 105.338C130.371 105.338 130.52 105.32 130.652 105.285C130.785 105.25 130.9 105.199 130.998 105.133C131.096 105.062 131.17 104.975 131.221 104.869C131.275 104.764 131.303 104.639 131.303 104.494C131.303 104.346 131.264 104.221 131.186 104.119C131.111 104.018 131.012 103.928 130.887 103.85C130.762 103.771 130.621 103.703 130.465 103.645C130.309 103.582 130.146 103.518 129.979 103.451C129.814 103.385 129.652 103.311 129.492 103.229C129.336 103.143 129.195 103.039 129.07 102.918C128.945 102.797 128.844 102.652 128.766 102.484C128.691 102.316 128.654 102.115 128.654 101.881C128.654 101.674 128.693 101.477 128.771 101.289C128.854 101.098 128.975 100.932 129.135 100.791C129.295 100.646 129.494 100.531 129.732 100.445C129.975 100.359 130.256 100.316 130.576 100.316C130.717 100.316 130.857 100.328 130.998 100.352C131.139 100.375 131.266 100.404 131.379 100.439C131.492 100.475 131.588 100.514 131.666 100.557C131.748 100.596 131.809 100.631 131.848 100.662C131.891 100.693 131.918 100.721 131.93 100.744C131.945 100.768 131.955 100.795 131.959 100.826C131.967 100.854 131.973 100.889 131.977 100.932C131.984 100.975 131.988 101.027 131.988 101.09C131.988 101.156 131.984 101.215 131.977 101.266C131.973 101.312 131.963 101.352 131.947 101.383C131.936 101.414 131.92 101.438 131.9 101.453C131.881 101.465 131.859 101.471 131.836 101.471C131.801 101.471 131.75 101.449 131.684 101.406C131.617 101.363 131.531 101.318 131.426 101.271C131.32 101.221 131.195 101.174 131.051 101.131C130.91 101.088 130.748 101.066 130.564 101.066C130.4 101.066 130.256 101.086 130.131 101.125C130.006 101.16 129.902 101.213 129.82 101.283C129.742 101.35 129.682 101.43 129.639 101.523C129.6 101.617 129.58 101.719 129.58 101.828C129.58 101.98 129.619 102.109 129.697 102.215C129.775 102.316 129.877 102.406 130.002 102.484C130.127 102.562 130.27 102.633 130.43 102.695C130.59 102.758 130.752 102.822 130.916 102.889C131.084 102.955 131.248 103.029 131.408 103.111C131.572 103.193 131.717 103.293 131.842 103.41C131.967 103.527 132.066 103.668 132.141 103.832C132.219 103.996 132.258 104.191 132.258 104.418ZM134.613 105.854C134.613 105.885 134.605 105.912 134.59 105.936C134.574 105.955 134.549 105.973 134.514 105.988C134.479 106.004 134.43 106.016 134.367 106.023C134.305 106.031 134.225 106.035 134.127 106.035C134.033 106.035 133.955 106.031 133.893 106.023C133.83 106.016 133.779 106.004 133.74 105.988C133.705 105.973 133.68 105.955 133.664 105.936C133.652 105.912 133.646 105.885 133.646 105.854V100.58C133.646 100.553 133.652 100.527 133.664 100.504C133.68 100.48 133.705 100.461 133.74 100.445C133.779 100.43 133.83 100.418 133.893 100.41C133.955 100.402 134.033 100.398 134.127 100.398C134.225 100.398 134.305 100.402 134.367 100.41C134.43 100.418 134.479 100.43 134.514 100.445C134.549 100.461 134.574 100.48 134.59 100.504C134.605 100.527 134.613 100.553 134.613 100.58V105.854ZM134.725 98.7988C134.725 99.0254 134.682 99.1797 134.596 99.2617C134.51 99.3438 134.352 99.3848 134.121 99.3848C133.895 99.3848 133.738 99.3457 133.652 99.2676C133.57 99.1855 133.529 99.0332 133.529 98.8105C133.529 98.584 133.572 98.4297 133.658 98.3477C133.744 98.2656 133.902 98.2246 134.133 98.2246C134.359 98.2246 134.514 98.2656 134.596 98.3477C134.682 98.4258 134.725 98.5762 134.725 98.7988Z" fill="#1C1C1C"/>
<defs>
<clipPath id="clip0_4462_1532">
<rect width="49.296" height="56.25" fill="white" transform="translate(56.7841 34.375)"/>
</clipPath>
</defs>
</svg>
