<svg width="120" height="37" viewBox="0 0 120 37" fill="none" xmlns="http://www.w3.org/2000/svg">
<path d="M-89.9918 5.99004C-89.1321 -43.723 -55.9351 -84.8135 -8.47228 -96.103C17.9818 -102.389 43.0904 -98.3373 66.4875 -85.0023C93.8411 -69.4095 110.782 -45.9966 117.716 -15.5583C119.794 -6.42445 120.287 2.87462 119.857 12.1815C119.666 16.3512 119.284 20.5759 117.326 24.5252C114.014 31.1809 108.625 34.8156 101.46 36.3654C97.4713 37.2229 93.7536 36.5306 90.0916 35.0594C88.1093 34.2648 86.1031 33.5096 84.1527 32.6285C76.6934 29.277 69.1624 29.159 61.504 31.9519C58.0171 33.2264 54.5064 34.493 50.8125 35.1066C44.7463 36.1136 39.2772 34.3671 34.1344 31.3776C30.4167 29.2141 26.6193 27.2866 22.3284 26.5392C13.7147 25.0287 5.45132 25.7997 -2.22298 30.284C-5.48695 32.1879 -8.8146 33.9108 -12.5244 34.8234C-17.5477 36.0507 -22.3561 35.083 -27.1167 33.4781C-30.5876 32.3059 -34.0268 31.0078 -37.649 30.3312C-43.0624 29.3164 -48.221 30.2368 -53.2444 32.2508C-55.561 33.1792 -57.8696 34.1232 -60.1703 35.083C-67.8048 38.2535 -74.8025 36.7509 -81.2269 32.0699C-86.2263 28.4274 -88.6385 23.2822 -89.4027 17.248C-89.9361 13.0233 -90.0476 8.79864 -89.9839 5.98217L-89.9918 5.99004Z" fill="#0A3967"/>
</svg>
