<svg width="56" height="57" viewBox="0 0 56 57" fill="none" xmlns="http://www.w3.org/2000/svg">
<path d="M36.639 6.10895C39.5795 7.2434 42.2677 8.94592 44.5502 11.1193C46.8327 13.2927 48.6648 15.8943 49.9419 18.7757C51.2189 21.6571 51.9159 24.7619 51.9931 27.9126C52.0703 31.0634 51.5261 34.1985 50.3916 37.139C49.2572 40.0795 47.5547 42.7677 45.3813 45.0502C43.2079 47.3327 40.6063 49.1648 37.7249 50.4419C34.8435 51.7189 31.7387 52.4159 28.5879 52.4931C25.4372 52.5703 22.302 52.0261 19.3616 50.8916C16.4211 49.7572 13.7329 48.0547 11.4503 45.8813C9.16784 43.7079 7.33576 41.1063 6.05871 38.2249C4.78166 35.3435 4.08465 32.2387 4.00748 29.088C3.93031 25.9372 4.47448 22.8021 5.60894 19.8616C6.74339 16.9211 8.4459 14.2329 10.6193 11.9504C12.7926 9.66786 15.3943 7.83578 18.2757 6.55873C21.1571 5.28168 24.2618 4.58467 27.4126 4.5075C30.5634 4.43032 33.6985 4.9745 36.639 6.10895L36.639 6.10895Z" stroke="#D9D9D9" stroke-width="8"/>
<path d="M36.639 6.10895C41.3676 7.93327 45.3973 11.2077 48.1505 15.463C50.9037 19.7183 52.2391 24.736 51.9652 29.7969" stroke="#0066AE" stroke-width="8" stroke-linecap="round"/>
</svg>
