<svg width="313" height="250" viewBox="0 0 313 250" fill="none" xmlns="http://www.w3.org/2000/svg">
<path fill-rule="evenodd" clip-rule="evenodd" d="M78.8761 167.5H192.808C193.453 167.5 194.081 167.431 194.686 167.299C195.291 167.431 195.919 167.5 196.564 167.5H261.668C266.508 167.5 270.432 163.582 270.432 158.75C270.432 153.918 266.508 150 261.668 150H254.156C249.316 150 245.392 146.082 245.392 141.25C245.392 136.418 249.316 132.5 254.156 132.5H277.944C282.784 132.5 286.708 128.582 286.708 123.75C286.708 118.918 282.784 115 277.944 115H250.4C255.24 115 259.164 111.082 259.164 106.25C259.164 101.418 255.24 97.5 250.4 97.5H170.272C175.112 97.5 179.036 93.5825 179.036 88.75C179.036 83.9175 175.112 80 170.272 80H98.9081C94.0678 80 90.1441 83.9175 90.1441 88.75C90.1441 93.5825 94.0678 97.5 98.9081 97.5H48.8281C43.9878 97.5 40.0641 101.418 40.0641 106.25C40.0641 111.082 43.9878 115 48.8281 115H80.1281C84.9683 115 88.8921 118.918 88.8921 123.75C88.8921 128.582 84.9683 132.5 80.1281 132.5H30.0481C25.2078 132.5 21.2841 136.418 21.2841 141.25C21.2841 146.082 25.2078 150 30.0481 150H78.8761C74.0358 150 70.1121 153.918 70.1121 158.75C70.1121 163.582 74.0358 167.5 78.8761 167.5ZM282.952 167.5C287.792 167.5 291.716 163.582 291.716 158.75C291.716 153.918 287.792 150 282.952 150C278.112 150 274.188 153.918 274.188 158.75C274.188 163.582 278.112 167.5 282.952 167.5Z" fill="#F3F7FF"/>
<path d="M215.127 82.9459L215.129 82.9645L215.131 82.9831C220.191 123.58 216.684 147.387 211.692 161.251C209.199 168.175 206.334 172.625 203.97 175.459C202.019 177.798 200.42 179.038 199.494 179.756C199.296 179.91 199.129 180.04 198.995 180.151L199.958 181.302L198.995 180.151C198.89 180.239 198.821 180.288 198.782 180.314C198.758 180.312 198.726 180.308 198.682 180.3C198.538 180.276 198.351 180.232 198.05 180.157L197.503 180.021C196.982 179.867 196.384 179.668 195.714 179.444C189.852 177.489 178.447 173.684 164.801 182.131L164.798 182.134C162.767 183.399 160.768 184.629 158.814 185.832C158.364 186.109 157.916 186.384 157.471 186.659C149.762 191.369 142.91 195.311 136.899 197.61C130.885 199.91 126.007 200.448 122.072 198.773C114.471 195.036 107.612 191.8 101.441 189.019L101.44 189.018C78.5169 178.72 64.6641 174.47 56.3859 172.865C54.4869 172.496 52.8698 172.265 51.4947 172.132C55.3269 169.87 60.8043 166.47 67.1709 162.031C67.2054 162.01 67.2597 161.976 67.3208 161.93C67.3472 161.91 67.3926 161.876 67.4473 161.825C83.1102 150.873 104.099 133.61 119.224 111.366C121.86 107.493 124.45 102.188 127.123 96.3978C127.835 94.8575 128.552 93.2811 129.281 91.6821C131.311 87.2238 133.421 82.5896 135.689 78.0722C138.768 71.9397 142.096 66.1117 145.817 61.3712C149.541 56.6284 153.578 53.0786 158.046 51.3441C177.42 44.385 191.213 48.4042 200.376 55.9626C209.646 63.6081 214.338 75.0072 215.127 82.9459ZM198.738 180.34C198.737 180.34 198.74 180.339 198.745 180.337C198.741 180.339 198.739 180.34 198.738 180.34Z" fill="white" stroke="#1F64E7" stroke-width="3"/>
<path d="M208.409 86.537C216.298 156.839 197.55 169.598 195.463 171.537C194.858 172.098 194.613 172.057 193.7 171.805L193.684 171.815C189.818 170.718 180.495 165.285 168.761 173.353C166.816 174.698 164.908 175.999 163.062 177.262C151.091 185.386 141.425 191.112 134.461 187.789C128.553 184.564 123.227 181.773 118.439 179.376C82.8973 161.644 75.753 164.88 75.12 165.268C75.8545 164.84 82.5921 160.843 91.6642 153.815C91.6951 153.796 91.726 153.777 91.7326 153.751C103.859 144.346 120.098 129.526 131.771 110.461C139.717 97.4969 147.491 64.6315 162.491 58.183C193.317 45.8763 207.129 72.2372 208.409 86.537Z" fill="#E8F0FE"/>
<path d="M172.197 82.6585C173.387 79.5213 173.271 76.5695 171.938 76.0655C170.605 75.5614 168.56 77.6961 167.37 80.8333C166.18 83.9705 166.296 86.9223 167.629 87.4263C168.962 87.9303 171.007 85.7957 172.197 82.6585Z" fill="#1F64E7"/>
<path d="M196.606 86.6619C197.45 83.4147 197.015 80.4927 195.635 80.1354C194.255 79.7782 192.453 82.1211 191.609 85.3683C190.766 88.6156 191.201 91.5376 192.581 91.8948C193.961 92.2521 195.763 89.9092 196.606 86.6619Z" fill="#1F64E7"/>
<path d="M181.748 98.5844C181.548 98.5842 181.354 98.5157 181.199 98.3904C181.043 98.265 180.935 98.0903 180.893 97.8952C180.736 97.1889 180.041 95.0991 178.939 94.7885C177.837 94.4779 175.675 95.6838 174.8 96.3164C174.612 96.4525 174.377 96.5084 174.148 96.4717C173.918 96.4351 173.713 96.3089 173.576 96.1209C173.44 95.9329 173.384 95.6986 173.421 95.4694C173.457 95.2402 173.584 95.035 173.772 94.8989C174.117 94.6497 177.204 92.4813 179.415 93.1041C181.721 93.7537 182.522 97.1391 182.605 97.523C182.633 97.6508 182.632 97.7833 182.602 97.9106C182.572 98.0379 182.513 98.1568 182.431 98.2587C182.349 98.3605 182.245 98.4426 182.126 98.499C182.008 98.5554 181.879 98.5845 181.748 98.5844H181.748Z" fill="#1F64E7"/>
</svg>
